<?xml version="1.0" encoding="UTF-8"?>
<svg id="Layer_1" fill="#FFFFFF33" xmlns="http://www.w3.org/2000/svg" viewBox="0 0 2957.14661 1281.46899">
    <path d="M2957.14661,450.59557c-.62287,2.76531-1.15374,5.55505-1.88358,8.29183-5.15062,19.31693-23.2001,30.04446-44.72857,25.60195-37.30744-7.6986-75.021-11.6416-112.99986-10.55297-36.90103,1.05771-73.78965,3.58202-110.5936,6.57277-18.38476,1.49404-32.56605,12.11414-39.68406,28.89583-9.58072,22.5864-19.04178,45.55276-25.09468,69.23918-14.64837,57.32281-28.14582,114.97519-40.49941,172.83764-11.83486,55.43443-22.24194,111.1948-32.15879,167.01025-8.54693,48.10539-14.61281,96.62514-16.69451,145.48338-1.46532,34.39513-2.04698,68.84922-2.05968,103.27735-.00847,22.94118,6.056,44.82403,15.29185,65.84683,2.37211,5.39917,4.34769,11.14994,5.34592,16.93894,2.35743,13.67394-3.52218,23.26162-16.8359,27.49794-13.91487,4.42757-28.15655,3.9881-42.20321.63382-26.91306-6.42676-44.74183-23.83183-56.20472-48.21413-13.36622-28.43019-17.73479-58.84844-17.53893-89.85862.24921-39.42747.14648-78.938,2.72292-118.24721,2.55048-38.90739,7.32997-77.73834,12.79697-116.36733,6.57219-46.4329,14.47141-92.69268,22.5665-138.89259,14.92947-85.20645,31.88221-170.01215,52.50559-254.05166.80575-3.28284,1.45375-6.60429,2.33683-10.64891-30.35565,2.29618-60.10141,3.5939-87.25042,17.18403-16.94879,8.484-32.42719,6.65697-47.08403-4.26668-25.85401-19.26904-39.92621-45.34896-42.69894-77.3202-1.87878-21.66409,11.55673-40.22704,35.07715-46.64171,15.13126-4.12663,30.89357-6.44238,46.52889-8.11466,30.60514-3.27336,61.383-4.95455,91.97149-8.35597,35.44729-3.94177,60.86653-22.40069,74.55336-55.71337,10.54932-25.67668,22.11155-50.80455,38.12872-73.59264,5.17941-7.36905,10.83042-14.54722,17.13958-20.95295,12.35444-12.54356,27.38325-16.59661,44.47852-11.50088,17.0154,5.07184,32.42183,13.13768,45.39434,25.4082,14.34724,13.57109,18.05004,30.22372,12.12527,48.57948-3.10053,9.60563-8.58277,18.41711-12.44334,27.81136-3.78296,9.20699-7.33195,18.56386-10.13219,28.10454-2.56205,8.72799.00649,13.04883,9.06058,14.35673,11.37624,1.64329,22.9317,2.45062,34.43241,2.75304,40.45511,1.06373,80.72535,3.60546,120.35297,12.52727,18.38053,4.13823,36.09359,9.74723,50.3141,22.91886,13.76472,12.74941,22.00431,28.44518,24.62844,47.05784.18373,1.30339.68327,2.56232,1.03605,3.84191v4.62149Z"/>
    <path d="M1072.87111,0c6.53487,2.8302,8.04407,7.87317,8.03314,14.75209-.15452,97.22448-.02385,194.44936-.02702,291.67414-.00078,23.86945.40034,47.76224-.48028,71.60388-2.52359,68.32562-33.32841,121.91896-86.78531,163.78752-6.97338-6.32254-13.62685-12.73689-20.68328-18.67278-14.35274-12.0737-30.39749-20.91262-49.12445-24.15812-20.64948-3.57867-39.23864,2.27475-55.32509,14.58592-13.08731,10.01587-24.78931,21.85897-36.93822,33.07302-7.07053,6.52644-13.81637,13.40456-20.69838,20.13455-4.35729,4.26107-9.34182,4.99891-14.85729,2.64511-74.63965-31.85287-124.50198-84.13782-135.2322-167.19874-7.16268-55.44558,1.21449-108.26008,36.13698-153.77271,35.77298-46.62101,82.81559-76.54512,140.98637-87.24267,32.60654-5.99632,64.76851-1.70089,96.22301,8.30028,6.04605,1.92238,12.09818,3.83019,18.18276,5.62525,6.91199,2.03916,8.26019,1.03833,8.2623-6.01346.01277-42.74076-.00776-85.48153.01849-128.22227.00557-9.04585.18013-18.09147.23862-27.13745.06519-10.07799.29507-10.45103,9.1861-13.76356h102.88375ZM778.77614,374.83598c1.52642,47.90106,43.85896,90.6009,96.03625,87.06542,50.03293-3.39017,89.14112-48.07894,85.82031-96.01554-3.53149-50.97869-47.47075-89.18131-96.12515-86.11328-52.66081,3.32062-88.65011,49.41336-85.73141,95.06341Z"/>
    <path d="M2055.46876,0c8.06376,3.14827,8.24128,3.27511,8.25257,13.82283.04459,41.58906-.00042,83.17822.05362,124.76726.00522,4.02748.4383,8.05638.72405,12.08099.33684,4.74307,2.96182,7.38213,7.64028,7.87884,3.24532.34455,6.51208.67058,9.77038.68119,39.48905.12864,78.97809.18483,118.46728.28951,10.30068.02731,12.08364,1.78644,12.09648,12.13357.03923,31.5753.05052,63.15073-.00282,94.72599-.0199,11.74022-1.46518,13.12559-13.45681,13.13617-38.72196.03415-77.44377.00906-116.16573.01564-17.66565.003-19.07678,1.37419-19.09583,19.00739-.03344,30.80144.00141,61.60292-.01298,92.4044-.00945,20.21589,3.96062,38.93567,19.1527,53.8135,30.20212,29.57732,83.32691,16.01793,95.39658-24.43406,5.65651-18.95813,5.65679-19.02244,25.36675-18.94276,28.47645.11516,56.95248.32643,85.42879.51366,11.73171.07715,13.43903,1.72044,12.36164,13.65719-6.83791,75.75138-48.70965,130.87691-120.79578,155.94274-102.33765,35.58492-212.17375-28.45833-233.13919-134.88817-2.69639-13.68818-3.89825-27.8841-3.93141-41.84921-.29521-124.57406-.1723-249.14915-.17061-373.72393,0-1.54017.00212-3.08081.03739-4.62045.28745-12.57362.33387-12.63637,11.45089-16.4123h100.57176Z"/>
    <path d="M830.3206,753.70433c-15.01851,7.04958-26.14484,16.99726-35.05542,29.57442-28.93062,40.83487-58.05027,81.5378-86.72456,122.55172-68.48105,97.9511-136.29023,196.35789-201.04149,296.83932-8.52347,13.22671-17.80697,26.17727-28.25787,37.90293-18.3685,20.60914-41.6613,31.7203-69.80021,28.91071-20.47835-2.04447-38.01604-11.96669-54.12525-24.20953-23.60855-17.94242-34.56586-43.01706-39.54514-71.40551-5.12526-29.22085-5.00224-58.60529-2.62643-87.99334,2.41719-29.89994,4.5571-59.8797,8.6582-89.57069,4.41422-31.95823,10.84033-63.64454,16.66643-95.39861,1.57479-8.58308,1.06554-12.86368-3.38544-14.86147-4.76224-2.13755-9.20028-.04041-14.16298,7.01108-47.57439,67.59928-90.50233,138.01732-128.01803,211.68485-14.04675,27.58299-27.5777,55.42809-41.39804,83.12665-6.85035,13.72922-15.41334,26.19166-27.38048,36.05351-20.03995,16.5147-42.41575,21.23492-66.96073,12.27697-28.85297-10.53037-50.33119-28.85894-56.0483-60.35873-2.07862-11.45268-.90743-23.85658.7251-35.55544,5.97779-42.83773,11.92801-85.71101,19.46396-128.29241,10.80658-61.06152,27.92069-120.5179,49.38955-178.69775,4.84685-13.13483,11.38606-25.2733,22.65064-34.21792,17.39579-13.81335,49.26136-15.95866,68.2985-4.43991,15.5668,9.41907,21.19652,24.51945,21.92987,41.53907.52836,12.26181-.64718,24.59639-1.04277,36.89917-.05895,1.8327-.0082,3.669-.0082,5.50361.46832.31289.93662.62578,1.40494.9386,2.92379-2.54099,6.24513-4.7473,8.71159-7.67339,35.72666-42.38317,71.15696-85.01732,107.07176-127.23999,13.45995-15.82404,27.55385-31.16666,42.12722-45.97326,19.41919-19.73006,43.44571-30.88642,71.1399-31.32384,31.90638-.50407,54.75627,15.53703,69.75516,43.14646,13.93649,25.65381,15.95896,53.23814,11.49672,81.37801-9.57617,60.38983-19.57967,120.71316-29.69376,181.01591-3.08046,18.36644-7.86288,36.47162-10.3784,54.89934-1.39829,10.2435.27058,20.90532.60866,33.26557,5.20756-2.21117,8.89802-2.96438,11.48783-5.06992,3.81379-3.10062,7.6588-6.69452,10.08305-10.89051,32.60376-56.43283,70.62089-109.22798,108.72978-161.94985,39.91316-55.21794,79.44468-110.73319,120.44702-165.13679,36.87373-48.92559,77.67167-94.62792,121.00774-137.99874,12.65635-12.66644,24.89896-25.81795,38.32303-37.62029,8.83621-7.76883,18.9025-14.6002,29.40504-19.89578,12.34703-6.22561,25.98849-5.82778,38.68654-.2227,33.23076,14.66849,56.06015,38.31007,61.84924,75.42453,3.61362,23.16719,1.17258,46.29222-4.95469,68.6347-10.31395,37.60901-21.2013,75.10208-33.27373,112.18002-29.91362,91.87234-53.95573,185.19856-71.85203,280.12329-7.45133,39.52281-13.4911,79.24638-16.11467,119.41407-1.42729,21.85167,1.01122,43.3918,5.94551,64.70372,5.56796,24.04889-2.27361,34.92353-26.7934,37.51818-33.54403,3.54961-57.45724-11.93552-75.09325-38.7806-11.82985-18.00687-15.3085-38.79964-17.54027-59.76137-3.27206-30.7317,1.31658-61.06582,5.24037-91.38055,12.11546-93.603,35.3689-184.9442,56.5937-276.69575,4.53297-19.59537,8.7761-39.25773,13.37849-59.90177Z"/>
    <path d="M2219.57817,739.82208c9.13142-13.85799,17.6895-27.54963,26.96217-40.73953,11.48391-16.3353,22.98617-32.71919,35.54438-48.22104,12.19893-15.05793,28.36695-18.0867,46.38213-11.20643,5.38332,2.05589,10.85949,3.96165,16.01886,6.49432,26.69165,13.10239,40.29043,37.13188,34.84234,66.31401-5.56295,29.79719-12.72415,59.36005-20.57314,88.65424-18.36543,68.54394-34.89808,137.4763-46.39554,207.5237-7.79254,47.47453-14.86794,95.10385-12.8259,143.43073.69653,16.47994,3.13468,32.89774,5.05819,49.3109,1.52585,13.01826,1.09645,25.72779-4.20023,37.94355-4.66082,10.74912-12.48892,15.62702-24.19621,14.5203-7.82485-.73974-15.80225-1.29331-23.34812-3.29688-25.79883-6.85016-40.51409-25.12782-49.19367-49.2853-6.14998-17.11721-7.20974-34.89468-7.45711-52.85995-.69244-50.2978,2.23692-100.38158,8.22745-150.31044.98356-8.19755,1.50751-16.45011,1.14485-25.95479-1.60417,1.16066-3.733,1.98262-4.73434,3.53241-17.12166,26.50102-34.31655,52.95903-51.06313,79.69685-20.84379,33.27967-41.527,66.63254-66.97799,96.7281-18.57258,21.96168-40.4448,39.08101-68.76801,46.2949-33.6704,8.57588-65.05688,1.74547-93.7426-16.81687-18.57611-12.02042-27.21674-31.34401-33.42641-51.76325-10.22984-33.63748-10.51362-67.87825-5.45148-102.29827,7.77165-52.84408,22.62407-103.61767,46.28843-151.59789,26.20312-53.1275,59.88481-100.93452,104.05908-140.72353,22.4625-20.23257,48.41627-34.7028,78.41943-40.89636,31.23789-6.44827,58.6924,2.03544,82.9675,21.81091,8.93301,7.27715,17.19377,15.37872,26.43906,23.71562ZM2001.43182,1079.84363c.60693.21311,1.21399.42621,1.82092.63932,1.26437-1.03295,2.71403-1.90611,3.76461-3.12319,13.17557-15.26427,28.18167-29.3561,39.04652-46.12509,25.39793-39.19884,49.14696-79.48579,72.83037-119.76272,8.62906-14.67495,15.69642-30.34561,22.51485-45.98088,5.50721-12.62836,7.80679-26.09625,5.59259-40.04069-1.42312-8.96338-6.27092-13.74566-15.29043-14.35141-8.81067-.59165-16.51515,2.4137-22.31588,8.82841-6.81378,7.53489-13.6857,15.22111-19.17048,23.71964-39.15362,60.66662-66.15389,126.56316-82.89158,196.65907-3.08346,12.91297-3.99011,26.34503-5.90148,39.53754Z"/>
    <path d="M1793.95289,761.03669c-10.04033-7.64469-20.80372-12.23628-32.44977-12.29291-24.02039-.11692-48.10498.14788-72.05876,1.78404-49.10872,3.35435-96.9992,13.88571-144.5942,26.05803-8.35883,2.13784-17.69655,2.6278-26.23403,1.41975-15.76161-2.23029-26.18689-12.38042-31.8101-27.05262-5.31488-13.86801-6.91891-28.42815-5.36159-43.13553,2.26359-21.37575,14.50105-35.58506,34.4626-42.04067,17.51748-5.66538,35.56879-9.82138,53.56238-13.85052,55.3699-12.39833,111.46399-18.86663,168.20494-20.32601,27.96478-.71936,55.83938-1.1845,83.2819,5.17104,26.88667,6.22684,51.00598,17.83276,68.6506,39.74014,24.24504,30.10247,27.5365,64.23153,16.97575,100.31995-8.72403,29.81179-27.03653,53.71301-48.21575,75.66115-24.07471,24.9487-52.25455,44.93686-80.45851,64.68278-61.48728,43.04809-123.5115,85.32993-185.29809,127.95145-3.16347,2.18226-6.33978,4.40916-9.18307,6.97695-4.24327,3.83204-7.01345,8.52962-7.00781,15.66834,15.51537,3.42614,30.97528,7.19386,46.58011,10.21402,34.91882,6.75834,70.17053,12.01365,104.80063,19.98893,37.34808,8.60113,70.22415,26.29031,95.05453,56.48756,14.72245,17.90434,25.67592,37.80251,29.72078,61.02168,3.83446,22.01105-12.6107,43.05091-33.56343,42.69367-8.79162-.14992-15.02853-5.45347-21.01214-10.90045-4.54511-4.13745-8.45577-8.96373-12.90746-13.21261-21.93474-20.93564-48.85401-31.55162-78.08386-37.15473-44.51041-8.53244-89.43894-12.91347-134.7479-14.33991-42.40529-1.33491-84.63954.99854-126.90456,3.62338-20.54703,1.27596-40.48544-1.25607-60.07996-8.49063-44.2121-16.32367-62.90448-80.41303-20.29063-115.49142,11.70207-9.63281,23.95265-18.76304,36.7317-26.90009,87.66811-55.82299,175.44572-111.49726,259.84792-172.20442,38.43084-27.64166,75.77892-56.79107,113.47936-85.43923,6.53212-4.96372,12.37024-10.84016,18.90843-16.63113Z"/>
    <path d="M1306.31425,613.21245c20.71411-.04689,45.60643,2.86403,69.23001,12.98039,34.47474,14.76309,51.4097,41.56058,54.54058,78.31032,4.00563,47.01623-11.14764,87.28315-39.86652,124.10623-53.74978,68.91706-119.87446,121.71579-199.4805,157.7203-21.89953,9.9048-44.92451,14.36093-68.91893,14.57749-7.65954.06911-15.38801.75709-22.94391,2.01062-9.86387,1.63638-16.26136,7.61359-18.14317,17.66408-10.71471,57.22433,8.36052,108.36814,73.71768,135.07,27.97846,11.43075,53.37893,6.62316,78.61176-6.52112,8.5235-4.44019,16.6962-9.55136,25.04501-14.32856,18.1443-10.38228,34.28889-7.72437,48.03612,8.07732,16.02309,18.41792,24.09983,39.29835,18.35823,63.87161-3.98447,17.0536-15.2203,29.57499-27.65306,41.03014-33.71033,31.06011-73.43574,39.42471-117.44132,30.07116-47.39363-10.07355-90.01771-29.94267-125.79436-63.18419-33.78237-31.38858-55.685-70.1713-70.94129-113.27397-10.21439-28.85817-15.67906-58.64133-14.25855-88.90486,2.94743-62.79197,16.56243-123.35098,44.35032-180.17258,33.73065-68.97347,80.65924-127.31785,142.92702-172.50201,43.26897-31.39796,92.21936-46.89776,150.62487-46.60236ZM1295.59291,725.27231c-.18091-.50625-.36181-1.01257-.54286-1.51883-12.0526,4.35465-24.40351,8.03261-36.10572,13.18271-47.19988,20.77246-80.75287,56.12671-105.36346,100.57882-6.03597,10.90221-11.35338,22.25476-16.13485,33.7599-1.1543,2.77744.01228,8.20496,2.16495,10.19322,2.14153,1.97811,7.09403,2.1159,10.3996,1.32673,3.97769-.9496,7.54566-3.67916,11.2436-5.72362,52.01487-28.75712,96.51751-66.51873,134.54816-112.05936,5.93563-7.10769,9.93506-15.09108,11.59934-24.1651,1.74698-9.52485-3.11196-15.79591-11.80875-15.57448Z"/>
    <path d="M1115.45476,370.68498c.00049-117.12175,93.92717-211.35745,210.67655-211.43324,119.58729-.07764,213.34541,99.19272,211.92906,214.87866-1.39448,113.89791-96.23494,208.49974-211.37872,208.37813-119.091-.12584-212.71259-98.90715-211.22689-211.82356ZM1417.42517,370.66873c-.00282-49.89842-41.31688-91.16647-91.23686-91.1352-49.32659.0309-90.50603,41.68915-90.37635,91.42721.13025,49.91404,41.19186,91.28831,90.56558,91.25531,49.51667-.03311,91.05045-41.79484,91.04762-91.54732Z"/>
    <path d="M1840.44114,279.5257c-15.79689.00407-31.59575-.14504-47.38982.07013-7.35142.10014-13.63024-2.06818-18.9509-7.01762-18.81332-17.50023-40.07114-17.5839-62.27187-8.23503-11.28635,4.75276-16.20541,14.24605-16.29544,26.29722-.08749,11.70471,6.56218,19.27222,16.88021,22.17768,15.84755,4.46254,32.05296,7.90183,48.29675,10.65349,23.70683,4.01592,47.66527,6.9712,70.32914,15.33722,43.55225,16.07661,72.11803,46.01043,80.15667,92.4764,6.90691,39.92458-6.07251,74.36506-33.42966,103.63893-24.36047,26.06751-55.36834,39.50846-89.67008,46.58748-53.54446,11.05023-105.35394,6.26944-154.69309-17.88029-36.823-18.02355-59.60681-47.66747-69.19403-87.4623-3.41959-14.19433-1.44119-17.09404,13.10474-17.20462,31.58348-.24008,63.17006-.15338,94.75494-.07591,9.2611.02267,16.55156,3.68377,21.8488,11.72943,1.9571,2.97249,5.4749,5.65727,8.85286,6.83633,21.59832,7.53898,43.36161,8.05877,64.91689-.26265,10.20811-3.94081,16.32366-11.17177,16.58896-22.6436.32978-14.25036-5.24658-23.30636-19.24061-27.0486-14.81799-3.96253-30.07893-6.2535-45.11832-9.40888-23.30226-4.889-47.26112-7.83932-69.72475-15.28102-44.42334-14.71648-73.34627-45.36226-81.69903-92.27324-7.05875-39.64464,5.93069-73.96853,32.26801-103.63197,22.76787-25.64304,52.11089-39.45967,85.04538-46.67069,52.70935-11.54063,103.46542-6.36048,151.17119,19.42187,34.43833,18.61202,55.38542,48.0483,63.87012,86.21009,2.3961,10.77681-.0429,13.5472-11.28254,13.62643-16.37418.11539-32.74963.02962-49.12452.03369Z"/>
</svg>
