<?xml version="1.0" encoding="UTF-8"?>
<svg id="Layer_1" fill="#13553a" xmlns="http://www.w3.org/2000/svg" viewBox="0 0 1000 1000">
  <path d="M399.92794,1000c-.16918-4.20117-.48547-8.40227-.48621-12.60344-.02563-142.69788-.0213-285.39582-.02133-428.0937v-13.693h-152.63532v-177.21821h152.6352c0-4.97649-.01381-8.75569.00208-12.53474.19523-46.37408-.97007-92.80463.94429-139.10777,2.30822-55.82996,18.81835-107.03269,58.22172-148.72755,29.9721-31.71511,67.37392-49.67424,109.59658-58.69292,34.29911-7.32622,69.00935-6.47106,103.66589-5.14137,28.17011,1.08082,56.28913,3.50504,84.42674,5.39464,2.20994.14841,4.38775.77706,7.04469,1.26836v157.99365c-3.35356,0-6.76455-.04284-10.17424.00662-34.68066.50308-69.41364.00627-104.02789,1.79852-40.93031,2.11932-64.07676,24.83459-65.77757,66.02451-1.76454,42.73418-.60858,85.58906-.69649,128.39123-.00119.57834.43506,1.15757,1.11076,2.84258h173.81927c-7.66854,59.5845-15.16974,117.86859-22.80471,177.19207h-151.55714c-.33497,3.80282-.7913,6.57049-.79195,9.33822-.03416,146.26534-.03208,292.53069-.00849,438.79603.00042,2.25545.31602,4.51089.48454,6.76628h-182.97043Z"/>
</svg>
