<?xml version="1.0" encoding="UTF-8"?>
<svg id="Layer_1" fill="#13553a" xmlns="http://www.w3.org/2000/svg" viewBox="0 0 1000 1000">
  <path class="cls-1" d="M1000,230.46875v539.0625c-1.23763,6.98173-2.41053,13.97574-3.72279,20.9434-17.28898,91.80254-69.30786,156.05253-155.34478,191.45972-22.47262,9.24826-47.53059,12.2143-71.40118,18.06563H230.46875c-7.00453-1.24002-14.02205-2.41119-21.01164-3.73054-91.78953-17.32558-156.0367-69.34488-191.41216-155.40206C8.81373,818.41075,5.84497,793.37984,0,769.53125,0,589.84375,0,410.15625,0,230.46875c1.2377-6.98201,2.41077-13.9762,3.72286-20.94419C21.00957,117.72131,73.00176,53.45154,159.0651,18.06527,181.54232,8.82341,206.59754,5.85152,230.46875,0c179.6875,0,359.375,0,539.0625,0,7.00474,1.24004,14.02253,2.41103,21.01225,3.73058,91.78692,17.32793,156.05956,69.31589,191.41704,155.39846,9.22537,22.46054,12.19612,47.49006,18.03946,71.33971ZM916.08107,500.0447c.12404-.00006.24807-.00006.37211-.00012,0-81.36868-.13894-162.73776.08053-244.10585.07033-26.06632-3.42202-51.40594-15.05858-74.84061-31.75992-63.96084-83.57882-97.28251-155.11459-97.47565-164.36356-.44377-328.72918-.18062-493.09382-.04167-10.03733.00848-20.15039.88894-30.09795,2.28907-75.75934,10.66332-138.46359,79.13848-138.96731,155.82722-1.11806,170.214-.47115,340.43959-.54103,510.6605-.00949,23.12261,4.52628,45.44532,14.69903,66.09428,31.55169,64.04454,83.26827,97.67449,154.81657,97.90051,164.68856.52029,329.37998.20522,494.07011.06342,10.03671-.00864,20.1422-.95385,30.09695-2.3253,74.28712-10.23424,137.44891-79.4394,138.46481-154.32703,1.17415-86.55822.27317-173.14464.27317-259.71878Z"/>
  <path class="cls-1" d="M749.96853,499.97062c.01979,137.73435-112.95789,250.50825-250.44978,249.99797-137.66387-.51099-249.47223-112.53446-249.48725-249.96722-.01502-137.80281,112.85299-250.46232,250.43258-249.96987,137.68274.49281,249.48472,112.48952,249.50445,249.93911ZM500.1576,333.5565c-91.97879-.14493-166.2035,73.83129-166.59918,166.04146-.39417,91.85392,73.53505,166.25112,165.79589,166.84556,92.12804.59348,167.1738-74.20212,167.08732-166.53043-.08625-92.06879-74.19658-166.21149-166.28402-166.35659Z"/>
  <path class="cls-1" d="M771.28399,291.32646c-34.80572.22259-62.67029-27.47607-62.61796-62.24515.0515-34.2256,27.45742-61.89767,61.78629-62.38639,33.91647-.48287,63.01671,28.43347,62.92945,62.53187-.08714,34.05568-27.91166,61.88104-62.09779,62.09967Z"/>
</svg>
