<?xml version="1.0" encoding="UTF-8"?>
<svg id="Layer_1" fill="#13553a" xmlns="http://www.w3.org/2000/svg" viewBox="0 0 1000 1000">
  <path d="M561.17876,999.99061h-206.76383V333.6719h198.2817v88.70216c14.31069-16.66764,26.43089-33.51516,41.25042-47.5042,36.49992-34.45433,81.11752-52.34017,130.68503-56.89017,42.85186-3.93355,85.44744-.82319,126.79127,12.09752,68.88193,21.52676,109.5108,69.94109,129.75419,137.5285,13.43002,44.83931,18.24955,90.9989,18.56279,137.41137.87083,129.02162.53307,258.05128.65144,387.07781.00142,1.58691-.27954,3.17405-.52569,5.79329h-207.04438c0-4.78958.00216-9.53526-.00022-14.28094-.05561-110.30423.24205-220.61076-.45554-330.91096-.14596-23.07014-2.2502-46.43096-6.40927-69.11585-12.56754-68.5477-57.0737-92.32302-121.47341-84.3961-57.82421,7.11755-89.47613,41.18137-98.2867,103.98639-3.21019,22.88292-4.68937,46.17897-4.79948,69.29681-.49617,104.19642-.21767,208.39649-.21834,312.5953-.00007,4.76551,0,9.53108,0,14.92779Z"/>
  <path d="M222.90536,1000H16.95189V333.22609h205.95347v666.77391Z"/>
  <path d="M239.67554,119.72418c.37119,66.3103-53.42881,121.28067-119.0719,121.66216C54.59741,241.76994-.36872,186.70466-.39178,120.17265-.41447,54.72346,53.33576.59699,118.94071.00492c66.1334-.59686,120.36233,53.17592,120.73482,119.71926Z"/>
</svg>
