<?xml version="1.0" encoding="UTF-8"?>
<svg id="Layer_1" fill="#13553a" xmlns="http://www.w3.org/2000/svg" viewBox="0 0 1000 1000">
  <path d="M12.11341,1001.43963c23.1637-27.29258,46.17998-54.71179,69.51654-81.85583,101.75652-118.35849,203.60742-236.63588,305.41301-354.95224,2.11232-2.45487,4.0921-5.02385,6.49655-7.9867C266.43642,371.68641,139.41482,186.84657,11.60596.86113c3.65825-.27491,6.05972-.61248,8.46129-.61318,91.58837-.02681,183.17698.06047,274.76462-.19907,6.50544-.01844,9.78663,2.41691,13.22605,7.43336,80.30224,117.12231,160.76864,234.1321,241.21442,351.156,1.98691,2.89034,4.08371,5.70513,6.76371,9.43909,16.68622-19.34372,32.80188-37.98444,48.87297-56.66353,86.49796-100.53524,173.06522-201.01126,259.30557-301.76693,6.1389-7.17213,12.27303-9.87825,21.54197-9.6315,23.6485.62954,47.32493.20968,73.29883.20968-122.43472,142.31333-243.42155,282.94373-364.59598,423.79214,2.09244,3.18834,3.8082,5.91155,5.62948,8.56228,128.18888,186.57024,256.38904,373.13267,384.55589,559.71795,1.99688,2.90693,3.59344,6.08879,5.37682,9.14222h-291.41664c-1.14115-1.94965-2.1646-3.97998-3.44029-5.83725-86.09603-125.3416-172.20967-250.67108-258.34933-375.98279-1.41255-2.05492-3.16203-3.87835-5.1119-6.24365-3.03994,3.44074-5.64738,6.32505-8.1827,9.27137-69.48362,80.7471-138.99642,161.46919-208.42319,242.26516-39.05039,45.4452-77.95689,91.01405-116.92822,136.52717H12.11341ZM129.06272,65.11184c2.92776,4.49398,4.60639,7.2393,6.44675,9.87158,199.64335,285.54893,399.31628,571.07716,598.82955,856.71697,4.03178,5.7722,8.28315,7.74381,15.20091,7.68014,37.14308-.34225,74.291-.14985,111.43725-.18309,3.10133-.00275,6.20235-.30949,10.97622-.56425-3.31626-4.86666-5.76915-8.54856-8.30345-12.17358C667.74535,646.24391,471.69711,366.12824,276.29814,85.56054c-10.63771-15.27438-21.00575-21.91757-39.9469-20.95687-35.02558,1.7765-70.20566.50816-107.28852.50816Z"/>
</svg>
