<?xml version="1.0" encoding="UTF-8"?>
<svg id="Layer_1" data-name="Layer 1" xmlns="http://www.w3.org/2000/svg" viewBox="0 0 1000 266">
  <defs>
    <style>
      .cls-1 {
        fill: #881ef8;
      }

      .cls-2 {
        fill: #891ff8;
      }

      .cls-3 {
        fill: #1e2647;
      }

      .cls-4 {
        fill: #1d2547;
      }

      .cls-5 {
        fill: #891ef8;
      }

      .cls-6 {
        fill: #1e2648;
      }
    </style>
  </defs>
  <path class="cls-3" d="M861,0v208h-16.5c-.918587,0-10.796519-11.73475-13.141975-12.837815-24.928812,15.289692-54.284763,18.142745-80.029518,3.009309-72.888953-42.84602-25.658481-156.811914,58.433105-132.433105,6.44996,1.869894,12.579732,4.716883,18.228395,8.261332l.009994-73.999721h33ZM782.758771,95.258884c-54.684118,7.388415-39.411784,92.574374,15.273552,79.273371,49.044529-11.929001,34.496805-85.997884-15.273552-79.273371Z"/>
  <path class="cls-5" d="M486,266l.008576-32.991061c20.83599-.613983,37.058999-15.482384,39.987214-36.002896-10.654181,4.87433-20.508626,9.987169-32.511505,10.978229-73.789112,6.092655-110.127361-85.493042-51.813321-130.813309,64.919472-50.45385,152.906042,33.026435,102.742824,101.742823l-11.413787,13.086214h24.5c2.38949,0,.72116,10.284508.381655,12.381212-4.335265,26.773634-23.77444,49.103697-49.366438,57.63401l-16.515217,3.984778h-6ZM481.773143,95.28068c-58.921286,6.119992-38.758623,98.092448,17.914765,77.907228,43.567909-15.517474,28.924244-82.772267-17.914765-77.907228Z"/>
  <path class="cls-6" d="M0,148v-24c2.824287-8.546606,4.79928-16.32943,9.201615-24.298385,1.958877-3.545892,9.444199-16.235834,13.778618-14.23437l23.003373,20.03269c-18.448541,16.361872-17.684889,46.879436,2.103198,61.913262,36.212097,27.511823,83.567245-16.508682,57.347634-55.348025-1.336222-1.979358-5.008528-3.672924-4.325931-6.362263.395249-1.557225,23.731474-20.012246,25.292023-19.63033,29.395697,31.767537,24.4653,82.852877-10.486745,108.341206-31.447369,22.932589-74.541431,17.157398-99.425658-12.401911-8.723672-10.362617-12.243254-21.410075-16.488126-34.011874Z"/>
  <path class="cls-4" d="M1000,107c-4.89208-.700188-30.828872,1.340555-32.525855-.974145-.756177-1.031433-.659721-3.89808-2.004437-5.995564-6.225856-9.711069-25.319551-3.27528-32.797664,2.141754-7.734512,5.602765-17.672044,19.602308-17.672044,29.327956v76.5h-32V63h32l.005418,10.995134c5.415456-1.920481,9.985873-5.064903,15.478289-7.011426,31.099963-11.021891,60.652499-1.245468,69.516292,32.016292v8Z"/>
  <path class="cls-1" d="M329.002441,172.987996c12.880129,4.121979,27.229301,2.962042,38.325507-5.160048,4.27632-3.130138,7.195067-7.887908,11.105269-10.79382l22.126299,21.97418c.667171.753576.396585,1.213041,0,1.983384-1.789225,3.475468-15.359675,14.480971-19.257083,16.810741-56.984399,34.063803-125.529469-18.747593-107.795156-82.795156,13.591879-49.08714,76.154599-69.814874,115.504626-36.51918,2.204801,1.865574,17.127933,16.66258,16.915769,17.874645l-76.925231,76.625254ZM356.996325,97.00662c-31.630913-10.153676-61.915259,19.077403-51.989705,50.989706,1.729743.44664,1.997616-.716783,3.000464-1.489582,6.126074-4.720776,15.434687-14.629039,21.519296-20.480363,7.449793-7.164166,20.037984-18.310286,25.980363-26.019296.773039-1.002859,1.936116-1.270834,1.489582-3.000465Z"/>
  <path class="cls-6" d="M644.828569,62.241714c22.506057-.492946,45.527767,10.671587,59.103375,28.391373.33547,1.854847-19.846045,20.199279-22.498727,23.332785-1.028351.230837-7.401211-7.828315-9.421393-9.477696-30.851954-25.189126-75.326137,4.66313-64.328361,42.328404,8.209461,28.11583,44.343504,37.983691,65.839995,18.206876,1.883133-1.732486,6.348791-8.216156,7.845418-7.954509l22.558798,22.568311c-28.438249,38.184792-86.391045,37.862871-115.346392.28146-36.305125-47.120757-3.208798-116.374748,56.247287-117.677004Z"/>
  <path class="cls-2" d="M219,16v46h31v33h-29.5c-.106066,0-1.5,1.393934-1.5,1.5v42c0,13.502202,13.246688,29.734618,25.725962,34.274038,5.417586,1.970683,10.766656,1.494248,15.274038,3.725962v31.5c-29.624481,1.442482-58.672096-19.279297-68.745643-46.754357-7.730635-21.084895-4.604377-44.143132-5.254357-66.245643h-18v-31.5c0-.106066,1.393934-1.5,1.5-1.5h16.5V16h33Z"/>
  <path class="cls-2" d="M57.5,148c-1.301431-.402636-1.41336-2.276835-1.550914-3.449086-1.688617-14.390585,1.690678-31.001455,1.04403-45.547458-2.863781.581749-3.782459,1.6772-6.540855.059757-1.681846-.986185-17.269023-16.779988-18.993123-19.016484-3.155863-4.093774-.27447-4.687804,3.242861-6.844372,25.486616-15.626519,60.144983-13.761822,83.280716,5.297875-4.737429,3.423287-19.356143,21.726956-23.695397,22.33083-1.530377.212975-2.816712-.747283-4.280333-.827936l-1.006985,47.996876h-31.5Z"/>
</svg>