<?xml version="1.0" encoding="UTF-8"?>
<svg id="Layer_1" data-name="Layer 1" xmlns="http://www.w3.org/2000/svg" xmlns:xlink="http://www.w3.org/1999/xlink" viewBox="0 0 250 250">
  <defs>
    <style>
      .cls-1 {
        fill: #fff;
      }

      .cls-2 {
        fill: url(#Adsız_degrade_12);
        stroke: url(#linear-gradient);
        stroke-miterlimit: 10;
      }
    </style>
    <linearGradient id="Adsız_degrade_12" data-name="Adsız degrade 12" x1="-156.4444" y1="125" x2="254.627" y2="125" gradientUnits="userSpaceOnUse">
      <stop offset=".1515" stop-color="#000"/>
      <stop offset=".232" stop-color="#000700"/>
      <stop offset=".3519" stop-color="#001b00"/>
      <stop offset=".4964" stop-color="#003c01"/>
      <stop offset=".6599" stop-color="#006a03"/>
      <stop offset=".8371" stop-color="#00a405"/>
      <stop offset="1" stop-color="#00e107"/>
    </linearGradient>
    <linearGradient id="linear-gradient" x1="-.5" y1="125" x2="250.5" y2="125" gradientUnits="userSpaceOnUse">
      <stop offset="0" stop-color="#00df08"/>
      <stop offset="1" stop-color="#202328"/>
    </linearGradient>
  </defs>
  <rect class="cls-2" x="0" width="250" height="250" rx="24.9973" ry="24.9973"/>
  <path class="cls-1" d="M24.6362,67.8965l-.8507,3.6084,20.9408,16.3086-21.9653,103.6966h47.9013l5.9246-27.7162c6.8383.3147,29.5758,3.2145,36.1621,27.7162,6.5232-7.4845,13.7242-13.2357,20.9095-17.6319l17.0018,17.6319h60.4434l-30.395-32.0971c9.785-.6932,19.5702-1.7173,28.5043-2.0643,7.0433-16.1347,10.8092-32.0963,13.9135-47.3809,2.7417-12.3694,3.4349-25.0695,4.1123-37.4381-26.1092-4.0816-61.5465-4.6332-87.7819-4.6332H24.6362ZM148.9586,111.7013c5.3416,6.6336,12.2905,11.7231,20.3265,15.0006,3.0412,1.2602,6.2397,2.2374,9.5802,2.9621-5.4045,1.024-10.7148,2.6313-15.8516,4.7902-4.0179,1.6703-7.9414,3.6553-11.7073,5.9404-10.2736,6.2081-19.4284,14.5282-26.5504,24.2502-4.0179,5.4357-7.3901,11.2976-9.9741,17.4588-.0315.0785-.0631.1416-.0946.22.142-13.0626-3.7817-25.1003-11.3922-34.5545,0-.0162-.0158-.0315-.0315-.0477-3.7973-4.7109-8.3828-8.6502-13.614-11.7069-.1102-.0792-.2206-.1423-.3308-.1893-1.954-1.1348-3.9866-2.1435-6.0979-2.9944-2.8679-1.2125-5.8773-2.1581-9.0129-2.8675l-.3466-.3147c3.6082-.694,7.1693-1.6703,10.6673-2.8998,15.4103-5.3418,29.5443-15.41,40.0858-28.2833,5.3099-6.492,9.7219-13.6935,12.9048-21.3665-.0789,7.5792,1.2133,14.796,3.7975,21.3819,1.8752,4.7748,4.4276,9.218,7.6421,13.2203Z"/>
</svg>