<?xml version="1.0" encoding="UTF-8"?>
<svg id="Layer_1" data-name="Layer 1" xmlns="http://www.w3.org/2000/svg" viewBox="0 0 1837.5652 1173.913">
  <defs>
    <style>
      .cls-1 {
        fill: #fff;
      }
    </style>
  </defs>
  <g>
    <path class="cls-1" d="M445.9818,717.987c2.2651,1.8709,6.9963,2.5615,22.6613,2.5615,12.5109,0,20.69-.9869,25.0269-1.0848,1.2807,0,2.7573.8865,2.7573,2.4635,0,3.8422-5.7156,12.0212-10.1504,14.3843-4.5303,2.4635-13.7917,3.7442-32.2165,3.7442-20.69,0-29.1629-3.35-32.9071-8.1766-3.35-4.1385-5.2208-12.8098-1.2807-26.9982,3.7442-13.4978,11.2327-23.2514,18.2265-27.1916,6.3057-3.5484,13.7942-5.7156,34.7805-5.7156,16.5515,0,24.1404,1.3787,26.7973,3.35,3.4504,2.2676,5.9114,10.3463,5.9114,13.7942,0,2.0693-1.8709,2.6594-3.35,2.5615-5.811-.3943-12.5109-.8865-24.9264-.8865-13.2015,0-19.1129.6906-22.4629,2.5615-3.0562,1.675-6.602,5.6151-8.7692,12.3151-2.0693,6.3057-1.8709,10.6426-.0979,12.3176Z"/>
    <path class="cls-1" d="M609.6485,733.4536c.0954,2.1697.1959,2.6619,0,3.7442-.3968,1.0848-1.5771,1.9713-2.9582,1.9713h-13.2995c-8.3775,0-10.0499-1.5771-10.4442-6.4036l-.6906-7.3905c-.1959-2.6594-1.5771-3.4479-4.5303-3.4479h-24.4367c-3.7442,0-5.025.7885-6.4036,2.9557l-5.1229,7.6844c-3.35,5.1229-5.9139,6.602-14.2864,6.602h-13.5958c-2.0693,0-2.5615-1.1828-2.5615-2.1672.0954-.9869,1.2807-2.7598,3.1516-5.4192l27.1941-40.2977c6.0094-8.9651,10.0499-13.0056,13.3999-14.977,4.0381-2.461,10.9339-4.4323,23.8416-4.4323,11.4311,0,18.2265,1.1828,21.3806,4.1385,3.0537,2.7573,4.1385,7.1922,5.025,15.665l4.3369,41.7743ZM581.2716,699.9564l-.2963-3.8422c-.2963-2.8578-.5926-3.8447-1.2807-4.5328-.6881-.6906-2.1672-1.0848-5.2234-1.0848-3.1516,0-5.2208.6906-6.2052,1.1828-1.1828.7885-1.9713,1.5771-4.0406,4.5328l-2.7573,4.2364c-.6906,1.1828-1.4791,2.3656-1.6775,3.0537-.4922,1.3787.3968,1.8734,2.466,1.8734h14.9744c2.4635,0,3.5484-.7885,3.9401-2.0693.1004-.6906.2963-1.7754.1004-3.35Z"/>
    <path class="cls-1" d="M650.5488,675.2258c.5901-1.5771,1.8709-2.1672,2.9557-2.1672,8.7692-.2963,22.6613-.7885,38.03-.7885,21.6769,0,28.0805,1.1828,31.3326,3.8422,3.35,2.6594,4.8291,9.6557,1.9713,18.8191-1.9713,6.4036-4.927,10.3437-8.5733,13.99-1.7729,1.7729-3.0537,3.0537-3.35,4.5328-.5901,1.5771-.3918,3.8422.2963,6.8958l3.35,15.3712c.4922,2.1672-.7885,3.4479-2.7573,3.4479h-9.952c-11.6245,0-14.1859-1.9713-15.4692-9.0655l-.8865-4.8266c-.8865-5.1229-3.0537-6.2078-9.3593-6.2078h-10.4442c-2.8578,0-3.9426.6906-4.927,4.0406l-3.7417,13.2015c-.5926,2.0693-1.4791,2.8578-3.4504,2.8578h-21.3806c-1.2807,0-1.7729-.7885-1.3787-2.0693l17.7343-61.8741ZM697.7423,691.0892c-1.0823-1.2807-5.811-1.3812-12.413-1.3812-3.7442,0-9.1635.2963-11.1323.3943-1.5771.1004-2.2676.5926-2.9582,2.5615l-2.0693,7.0942c-.6881,2.7598-.3918,3.35,2.6619,3.35h11.4286c5.025,0,8.1791-.0979,9.4598-.7885,1.8709-.7885,3.9401-2.8553,5.0225-6.1073.7885-2.5615.7885-4.2364,0-5.1229Z"/>
    <path class="cls-1" d="M867.0291,733.4536c-7.388,4.7312-20.4916,6.3057-40.1972,6.3057-14.0905,0-29.0674-.4922-37.0481-.786-1.1803,0-2.5615-.5926-1.9688-2.6619l17.438-60.6913c.4922-1.5771,1.9713-2.1672,3.5484-2.2676,11.4286-.3943,24.3363-.786,35.8628-.786,21.3806,0,31.5284,1.7729,35.9633,6.1073,4.0406,3.9401,6.1098,13.302,2.1672,29.1629-2.9557,12.1192-9.1635,21.1847-15.7655,25.617ZM857.7677,694.0449c-1.5771-1.675-7.7823-2.2676-16.0593-2.2676-5.8135,0-10.2458.1004-12.6114.1984-2.0667.1959-2.6594.6881-3.1516,2.1672l-6.8958,24.04c-.4947,1.675.1959,2.2651,2.2651,2.2651h12.2171c9.4573,0,13.6937-.8865,16.3556-2.461,2.9532-1.675,5.811-5.7156,7.5839-12.1192,1.6775-5.9114,1.8734-10.0499.2963-11.8229Z"/>
    <path class="cls-1" d="M941.1354,690.3986c-2.1697.0979-2.8578.4922-3.4504,2.3656l-.884,2.9557c-.4922,1.9688.3918,2.1672,2.6594,2.1672h40.8878c1.4791,0,2.6594.8865,2.6594,2.3631,0,2.7598-3.7417,9.7561-7.5839,11.9233-2.3656,1.3787-6.0119,1.7729-10.3463,1.7729h-30.7424c-2.1647,0-2.9532.6906-3.35,2.2651l-.884,3.0562c-.3968,1.5745.2963,1.9688,2.6594,2.1672,2.6594.0979,6.5016.0979,13.6937.0979,15.2733,0,25.0269-.3943,31.4305-.5901,1.5771,0,2.9582.6881,2.9582,2.6594,0,3.0537-5.7156,12.3151-10.6426,14.2864-3.35,1.3787-11.8229,1.5771-31.2346,1.5771-14.6781,0-27.5858,0-36.355-.3943-.8865,0-2.6594-.5926-1.9713-2.6619l17.5384-61.2815c.4922-1.7754,2.3656-2.2676,3.4504-2.2676,11.1323-.2938,21.6744-.5901,35.5665-.5901,18.4249,0,23.8441.4922,26.4055,1.5771,3.35,1.4766,6.5995,8.6688,6.5995,13.3974,0,1.8734-1.1803,3.252-3.1516,3.252-5.5172-.0979-17.9327-.1959-28.1785-.1959-5.9114,0-14.5802,0-17.7343.0979Z"/>
    <path class="cls-1" d="M1074.9461,734.7344c-5.4167,3.9426-18.4249,5.4192-35.4686,5.4192-18.7212,0-24.9289-1.2807-28.5727-3.4479-2.8578-1.7729-5.713-9.2614-5.713-13.3999,0-1.4766,1.2807-2.6594,3.35-2.5615,3.7417.2963,13.6937,1.2807,27.4879,1.2807,11.627,0,16.8453-.3943,18.1285-1.0823,1.0823-.3943,1.7729-1.1828,2.5615-2.5615.6906-1.2807.7885-2.564.0979-2.8578-3.5459-1.4791-38.5222-.5926-44.73-4.2364-2.5615-1.3812-2.8578-8.4729-.9844-15.0749,2.2651-8.4729,6.2052-15.1728,11.8229-18.7212,5.9114-3.7442,16.4536-6.0094,35.7649-6.0094,16.2552,0,24.2358,1.1828,27.0936,3.0537,3.6438,2.6619,6.3057,9.1635,6.3057,13.302,0,1.4766-1.2807,2.4635-2.9557,2.4635-5.4192-.0979-11.9208-.6906-26.3051-.6906-11.627,0-20.0019.7885-21.3806,1.2807-1.0848.5926-1.9713,1.3787-2.6619,2.7598-.5901,1.1828-.8865,2.2651-.0979,2.5615,3.9401,1.4766,39.6071.9844,45.2247,4.4323,2.8578,1.7754,3.6438,7.7848,1.5771,16.0618-2.1697,8.6688-5.9139,14.7786-10.5446,18.0281Z"/>
    <path class="cls-1" d="M1132.7947,733.75c-1.1828,3.9401-2.8578,5.4192-6.602,5.4192h-19.015c-1.3812,0-1.7729-.8865-1.2807-2.0693l16.8478-59.3127c1.1828-3.9401,2.8553-5.2208,6.8958-5.2208h18.8191c1.4791,0,1.675.6881,1.1828,1.9688l-16.8478,59.2147Z"/>
    <path class="cls-1" d="M1242.46,728.2328c-1.5745,5.3213-3.35,7.3905-8.2745,8.5708-8.277,2.0693-17.9327,3.252-31.1342,3.252-21.9732,0-30.544-3.1516-34.6825-8.3749-3.7442-4.6307-4.5328-14.8765-.7885-27.5858,4.2364-14.4848,9.8515-21.3806,16.3556-25.617,6.602-4.4348,16.8478-6.602,36.0612-6.602,15.3687,0,23.2514,1.3787,26.3051,3.252,3.8447,2.4635,6.4061,8.8671,6.4061,13.2015,0,1.4791-1.1828,2.5615-2.8578,2.5615-5.3213-.1959-15.9614-.8865-26.1092-.8865-13.6962,0-19.5097.7885-22.9576,2.9557-3.0537,1.8734-6.3057,5.9114-8.4729,12.5134-2.2676,6.7-2.0693,11.2327-.7885,12.9077,1.8734,2.1672,6.5041,2.7573,14.2864,2.7573,4.927,0,8.6713-.2963,11.529-.6906,1.9688-.2938,2.6594-.5901,3.1516-1.8709l1.1828-3.9401c.2963-1.2807-.1984-1.5771-1.8734-1.5771h-12.0187c-2.0693,0-3.1541-.8865-3.1541-2.3656,0-1.8709,4.6307-8.9651,8.0811-11.1323,1.8709-1.1828,4.4323-1.675,9.063-1.675h24.7306c3.1516,0,4.3344,1.1828,3.4479,4.0381l-7.4885,26.3076Z"/>
    <path class="cls-1" d="M1365.829,724.0943c-1.9713,6.602-4.2364,10.1479-7.1922,12.3151-2.8578,2.0693-8.277,3.35-20.0999,3.35-10.6401,0-16.0593-1.0823-18.9171-3.4479-2.4635-2.0693-3.7442-5.5172-4.6307-12.7093l-4.4348-29.5571c-.5901-2.4635-1.0823-3.1541-2.5615-3.1541-1.4766,0-2.1672.5926-2.6594,2.0693l-10.4442,37.1436c-1.9713,7.4885-5.3213,9.0655-14.2864,9.0655h-10.0499c-1.2807,0-2.1672-1.0848-1.7729-2.7598l13.3999-46.405c2.3631-8.277,4.6307-12.413,8.1766-14.7786,3.252-2.1672,9.1635-3.252,19.3113-3.252,11.7249,0,15.7655,1.1828,18.3269,3.252,2.9557,2.2651,4.1385,6.8958,5.1229,15.665l4.5328,26.7019c.4922,3.0537.9844,3.6438,2.4635,3.6438,1.4766,0,2.2651-1.0823,2.7573-2.6594l10.3463-36.2571c2.1672-7.8827,4.0381-9.7536,14.7786-9.7536h10.0499c1.5771,0,2.3631.786,1.9713,1.9688l-14.1884,49.5591Z"/>
  </g>
  <polygon class="cls-1" points="435.8658 442.734 470.0667 469.3492 434.1943 638.5795 512.6506 638.5795 555.5174 436.8451 437.2801 436.8451 435.8658 442.734"/>
  <path class="cls-1" d="M581.8753,436.8451l-1.3884,5.8888,34.175,26.6152-35.8468,169.2303h78.1739l9.6688-45.2322c11.1599.5135,48.267,5.246,59.0157,45.2322,10.6457-12.2146,22.3976-21.6003,34.1238-28.7749l27.7465,28.7749h98.6422l-49.6039-52.3817c15.9689-1.1313,31.9381-2.8025,46.5183-3.3688,11.4945-26.3315,17.6404-52.3804,22.7065-77.3244,4.4744-20.1865,5.6057-40.9129,6.7113-61.0981-42.6095-6.661-100.4425-7.5613-143.2579-7.5613h-187.3849ZM784.7663,508.3335c8.7174,10.8259,20.0578,19.1318,33.1724,24.4807,4.9631,2.0567,10.183,3.6513,15.6346,4.8341-8.8201,1.6712-17.4863,4.2942-25.8694,7.8174-6.5571,2.7259-12.9601,5.9654-19.106,9.6946-16.7662,10.1315-31.7067,23.7097-43.3296,39.5757-6.5571,8.8709-12.0605,18.4374-16.2775,28.4924-.0515.1281-.103.231-.1544.3591.2317-21.3178-6.1717-40.9631-18.5919-56.3921,0-.0264-.0257-.0515-.0515-.0778-6.1971-7.6881-13.6805-14.1169-22.2178-19.1054-.1799-.1293-.36-.2323-.5399-.3089-3.1889-1.852-6.506-3.4981-9.9517-4.8868-4.6803-1.9788-9.5916-3.522-14.7089-4.6797l-.5657-.5135c5.8885-1.1326,11.7001-2.7259,17.4088-4.7324,25.1493-8.7177,48.2155-25.1487,65.419-46.1576,8.6656-10.5949,15.8659-22.3474,21.0604-34.8696-.1287,12.369,1.9801,24.1467,6.1974,34.8947,3.0602,7.7923,7.2257,15.0435,12.4717,21.5752Z"/>
  <polygon class="cls-1" points="945.9218 442.734 980.1228 469.3492 944.2506 638.5795 1022.7069 638.5795 1065.5736 436.8451 947.3362 436.8451 945.9218 442.734"/>
  <path class="cls-1" d="M1342.6265,473.2843c-7.2772,34.7403-16.5345,73.9556-26.049,108.6972-22.4234,3.085-45.3873,3.3676-67.245,3.3676-22.1402,0-45.1038-.2825-66.6787-3.3676,6.1459-34.7416,13.4489-73.9569,20.7264-108.6972l7.8432-36.4392h-119.3693l-1.3884,5.8888,33.8925,26.6152-.8488,3.9351c-10.6457,50.4267-20.4433,105.3535-26.3321,156.0639,46.2354,8.9739,92.4709,12.0338,140.095,12.0338,47.3671,0,95.274-3.0599,144.8783-12.0338,11.7516-50.7105,29.4178-105.3547,40.3466-156.0639l7.8432-36.4392h-79.8708l-7.8432,36.4392Z"/>
  <g>
    <path class="cls-1" d="M115.5368,444.6889c-9.8231,25.7664-16.2519,47.0579-21.5749,71.7194-5.0402,24.094-9.1317,63.7805-8.6917,85.1934,63.593,15.7115,128.3177,15.1465,194.4565,19.9027-.8486,7.56-2.1549,19.6376-3.3687,27.2845-1.5943,10.0448-3.7372,20.3308-6.1717,27.0597-28.5693,5.04-55.467,5.5799-93.8596,5.5799-44.2553,0-73.699-1.9537-104.7885-4.7563l-12.0602,56.0581c46.8011,4.7575,93.3195,6.4287,140.1208,6.4287,47.624,0,94.9653-3.6513,144.5694-10.9289,9.7974-25.4839,16.8177-52.8262,22.4235-79.1589,5.323-25.2265,7.5602-50.5296,8.4087-76.3225-63.053-17.3827-130.0148-14.837-194.7393-20.1608.7767-15.9488,1.6377-21.4735,3.6257-35.3304,1.4144-6.7376,3.0858-13.4508,5.0402-20.4709,27.4636-4.1912,51.8414-5.5799,87.7137-5.5799,46.5184,0,77.3249,2.52,111.2429,4.7575l11.7518-55.2093c-47.0583-4.7575-93.011-6.995-140.378-6.995-46.7754,0-94.4253,3.085-143.7208,10.9289Z"/>
    <path class="cls-1" d="M1567.3786,496.7862c27.4636-4.1912,51.8414-5.5799,87.7137-5.5799,46.5184,0,77.3249,2.5213,111.2429,4.7588l11.7518-55.2093c-47.0583-4.7588-93.011-6.9963-140.378-6.9963-6.5907,0-13.2042.0791-19.8319.2059l-165.5074,2.8804-1.4143,5.8888,34.2009,26.614.049-.0126c-5.1932,15.7328-9.2509,30.6671-12.7919,47.0729-5.0402,24.0927-9.1316,63.7801-8.6917,85.1934,63.593,15.7102,128.3177,15.1452,194.4565,19.9015-.8486,7.5613-2.1549,19.6378-3.3687,27.2845-1.5943,10.0449-3.7372,20.3309-6.1717,27.061-28.5693,5.04-55.467,5.5799-93.8596,5.5799-44.2553,0-73.699-1.9537-104.7885-4.7563l-12.0602,56.0581c46.8011,4.7563,93.3195,6.4287,140.1208,6.4287,47.624,0,94.9653-3.6513,144.5694-10.9289,9.7974-25.4839,16.8177-52.8262,22.4235-79.1589,5.323-25.2278,7.5602-50.5309,8.4087-76.3237-63.053-17.3827-130.0148-14.8363-194.7393-20.1601.7768-15.9488,1.6378-21.4735,3.6257-35.3304,1.4144-6.7376,3.0858-13.4501,5.0402-20.4715Z"/>
  </g>
</svg>