<?xml version="1.0" encoding="UTF-8"?>
<svg id="Layer_1" xmlns="http://www.w3.org/2000/svg" viewBox="0 0 796.82 954.05">
  <defs>
    <style>
      .cls-1 {
        fill: #fdb3a8;
      }

      .cls-2 {
        fill: #f37d71;
      }

      .cls-3 {
        fill: #f34945;
      }

      .cls-4 {
        fill: #352120;
      }
    </style>
  </defs>
  <path class="cls-4" d="M325.75,0c6.27,3.68,13.5,2.71,20.24,4.11,28.65,5.96,56.2,15.02,82.17,28.63,3.32,1.74,6.39,3.13,10.5,2.36,66.58-12.44,124.14,7.23,175.5,49.29,38.61,31.62,53.18,74.25,56.19,122.07,2.98,47.3-4.8,93.35-17.51,138.72-.5,1.78-.86,3.6-1.29,5.41-4.03,4.52-6.84.31-9.34-1.74-24.19-19.78-64.69-18.4-87.64,9.86-6.85,8.43-11.2,17.85-13.67,28.2-1.77,7.41-5.59,10.05-13.36,8.81-31.15-4.95-51.53-24.04-66.88-49.96-2.21-3.73-4.41-7.58-5.79-11.66-2.88-8.51-9.23-10.94-17.33-11.18-11.4-.34-22.1,2.6-32.65,6.45-9.66,3.53-15.17,2.56-17.01-2.84-1.83-5.36,1.73-9.72,11.23-13.45,12.54-4.91,25.58-7.67,39.03-7.6,4.72.03,6.15-.62,4.87-5.51-9.09-34.75-11.52-70.26-11.66-106-.02-4.16-.73-8.03-3.73-11.17-10.3-10.77-20.65-21.49-33.56-29.27-29.99-18.07-60.7-13.53-88.23,12.28-26.63,24.96-45.81,55.34-64.13,86.36-10.55,17.87-20.68,36-31.83,55.75,11.77-2.12,22.29-3.31,32.93-1.07,14.29,3.01,27.23,8.46,37.98,18.45,3.72,3.45,7.5,7.62,3.22,12.81-3.97,4.83-8.93,3.11-13.38.21-4.15-2.71-8.18-5.61-12.56-7.99-18.64-10.11-37.53-8.99-56.61-1.44-4.58,1.81-7.51,5.36-10.06,9.33-5.55,8.62-11.49,16.94-18.03,24.84-5.82,7.03-12.64,12.82-20.89,16.76-4.85,2.32-9.88,3.98-14.97.41-44.14-13.84-49.62-50.47-51.23-90.22-19.33,26.03-13.24,50.85,23.19,99.24-27.52,4.42-49.02-5.54-65.42-26.38-25.83-32.81-33.12-69.81-22.72-110.35,10.54-41.06,32.28-76.18,58.02-109.06,30.14-38.51,64.97-72.47,103.01-103.11C208.75,19.08,239.05,6.55,272.62,1.87c1.68-.23,3.85.54,4.69-1.87h48.44Z"/>
  <path class="cls-1" d="M137.5,380.24c11.13.88,19.68-4.28,27.28-11.67,10.08-9.8,18.16-21.18,25.51-33.06,3.11-5.03,7.05-8.06,12.65-10.05,24.71-8.76,47.53-6.35,68.18,10.5,3.56,2.91,7.43,5.89,11.23,1.4,4.4-5.2-.33-8.39-3.92-11.32-19.51-15.91-41.64-21.11-66.25-16.05-2.09.43-4.19.8-7.24,1.37,25.15-42.49,46.69-86.12,77.38-124.06,11.55-14.29,24.2-27.43,40.17-36.99,23.09-13.82,46.29-13.98,69.68-.86,15.38,8.63,27.64,20.88,39.31,33.83,2.23,2.48,2.96,5.18,2.88,8.48-.92,39.25,2.59,78.03,13.37,116.98-15.66-1.64-30.47,0-44.73,5.51-2.6,1-5.22,1.97-7.78,3.05-3.97,1.67-7.68,4.01-5.68,8.97,1.98,4.93,6.2,4.27,10.24,2.52,7.7-3.33,15.58-6.11,23.93-7.28,3.37-.47,6.76-.89,10.15-1,11.45-.4,19.43,2.05,24.84,14.92,11.72,27.91,31.32,48.96,62.23,56.66,2.1.52,4.33.56,6.37,1.23,6.86,2.24,9.35-.18,11.13-7.28,8.8-35.21,38-56.06,72.78-52.72,12.41,1.19,23.12,6.46,32.9,14,2.1,1.62,3.37,5.93,7.45,3.25-.25,4.84,3.27,7.87,5.61,11.39,28.05,42.13,11.18,104.32-34.16,125.68-6.78,3.19-13.93,5.43-21.37,5.73-4.71.19-7.03,1.59-8.7,6.15-15.98,43.43-40.43,81.42-74.19,113.17-4.64,4.36-7.41,8.86-6.98,15.2-3.96-.5-7.02,1.08-10.1,3.54-40.85,32.55-86.64,53.9-138.94,59.39-21.55,2.26-43.28,2.53-64.58-3.08-3.27-.86-6.73-1.3-9.31-3.84-13.73-6.23-28.16-10.93-40.92-19.29-40.4-26.44-66.64-63.9-84.11-108.1-16.87-42.66-24.78-87.05-26.72-132.85-.62-14.57.01-28.96.43-43.44Z"/>
  <path class="cls-4" d="M517.31,750.45c53.34,15.01,106.74,29.81,160,45.09,67.89,19.47,115.24,79.39,119.44,150.06.38,6.36-.9,8.4-7.72,8.4-260.45-.18-520.91-.2-781.36.05-8.35,0-7.9-3.77-7.49-9.46,5.26-73.21,53.64-131.46,124.63-150.84,51.66-14.1,103.12-28.91,154.67-43.4,6.02,3.1,3.54,8.4,3.3,13.05-1.24,23.49-3.13,47.02,1.73,70.32,5.31,25.5,20.94,40.74,46.53,45.68,38.9,7.51,77.14,6.01,113.7-10.37,37.27-16.7,56.97-47.18,64.64-86.32,1.61-8.21,2.33-16.56,3.82-24.79.52-2.89.07-6.46,4.11-7.47Z"/>
  <path class="cls-1" d="M517.31,750.45c-3.69,9.31-2.77,19.35-4.6,28.99-12.02,63.16-53.04,100.14-117.09,105.47-18.95,1.58-37.79,1.75-56.58-1.35-39.64-6.55-57.2-25.78-59.73-66.01-1.19-18.9-1.02-37.83,1.21-56.7.41-3.43,2.3-7.32-1.04-10.51,1.08-3.02,2.16-6.04,3.24-9.06,3.64,6.88,9.7,9.53,17.1,10.93,45.2,8.56,88.63,2.47,130.9-14.83,25.17-10.3,47.76-24.68,68.9-41.63,4.2-3.37,7.69-8.29,13.92-8.45.72,18.07,1.45,36.15,2.13,54.22.11,3.07-.07,6.16,1.64,8.92Z"/>
  <path class="cls-2" d="M513.54,687.3c-39.39,35.15-84.23,59.7-136.71,68.3-28.53,4.68-57.22,4.91-85.57-2.82-6.46-1.76-9.58-4.77-8.54-11.5,2.03-19.13,4.07-38.25,6.1-57.37,15.84,1.97,31.35,5.63,47.58,5.69,57.93.23,108.65-19.65,154.83-53.15,4.74-3.44,9.54-6.87,13.78-10.88,4.37-4.13,5.24-.55,6.75,2.33.59,19.8,1.19,39.6,1.78,59.4Z"/>
  <path class="cls-2" d="M256.86,487.39c1.11-5.62,5.02-9.87,7.8-14.62,10.32-17.62,21.09-34.97,31.71-52.42.8-1.32,1.77-2.54,2.68-3.8,2.54-3.5,5.58-6.34,10.05-3.51,4.57,2.89,4.44,7.09,1.87,11.36-6.39,10.6-12.85,21.15-19.27,31.73-4.49,7.41-8.68,15.03-13.53,22.19-3.37,4.97-2.3,6.65,3.26,8.08,12.86,3.32,25.52,7.41,38.35,10.86,5.26,1.42,8.99,4.02,7.22,9.63-1.69,5.36-6.01,5.89-11.38,4.26-17.15-5.19-34.43-9.96-51.69-14.78-4.69-1.31-8.1-3.3-7.08-9.01Z"/>
  <path class="cls-4" d="M454.62,386.72c.17,9.26-2,17.82-7.91,25.09-7.66,9.41-18.23,9.47-26.11.34-10.85-12.58-10.97-38.18-.24-50.99,8.05-9.62,18.94-9.52,26.68.39,5.76,7.38,7.83,15.96,7.58,25.16Z"/>
  <path class="cls-4" d="M230.61,386.47c.2-10.1,2.38-19.59,9.86-27.04,7.27-7.24,15.59-7.19,22.89-.15,13.03,12.57,13.07,41.74.06,54.33-7.38,7.15-15.61,7.25-22.89.02-7.48-7.44-9.71-16.92-9.93-27.16Z"/>
  <path class="cls-2" d="M571.59,421.54c.21-24.22,15.33-47.42,34.72-53.26,12.09-3.64,22.45.46,28.44,11.38,1.65,3.01,3.56,6.42-.63,8.88-3.34,1.96-5.98.43-7.63-2.78-3.98-7.78-10.67-9.2-18.17-7.03-8.82,2.55-15.01,8.83-18.82,16.91-1.78,3.77,2.95,3.99,5.09,5.04,10.1,4.95,18.21,11.09,20.72,23.21,3.57,17.23-5.06,31.83-22.26,35.6-4.64,1.02-10.47,1.69-11.52-4.19-1.1-6.11,4.81-5.78,9.08-6.31,11.29-1.4,15.88-8.17,14.64-21.43-.8-8.55-11.83-19.12-19.33-18.81-2.73.11-2.78,1.78-3.06,3.62-.79,5.18-2.3,10.25-1.87,15.61.28,3.48.07,7.55-4.62,7.59-4.69.04-4.74-3.99-4.76-7.51-.01-2.17,0-4.34,0-6.52Z"/>
  <path class="cls-3" d="M306.14,568.22c-6.81,0-13.63.09-20.43-.03-4.44-.08-8.46-1.72-8.06-6.82.38-4.95,4.31-6.18,8.9-5.72,41,4.05,79.8-4.78,117.54-19.96,5.08-2.04,11.9-7.83,15.39-.35,4.01,8.58-5.72,9.52-10.68,11.63-32.76,13.91-66.85,21.95-102.65,21.26Z"/>
</svg>