<?xml version="1.0" encoding="UTF-8"?>
<svg id="Layer_1" xmlns="http://www.w3.org/2000/svg" viewBox="0 0 859.68 872.74">
  <defs>
    <style>
      .cls-1 {
        fill: #ffffff;
      }

      .cls-2 {
        fill: #ffffff;
      }

      .cls-3 {
        fill: #ffffff;
      }
    </style>
  </defs>
  <path class="cls-1" d="M256.86,108.77s-727.64,483.32,602.82,424.9c0,0-359.85,158.01-613.45,146.06-170.39-8.03-289.88-120.38-231.04-305.4,26.18-82.32,148.71-225.73,241.66-265.56h0Z"/>
  <path class="cls-3" d="M306.42,734.91S1144.39,981.64,244.43,0c0,0,352.35,174.1,506.2,376.04,103.38,135.69,94.11,299.45-85.44,373.29-79.89,32.86-268.51,31.17-358.77-14.42h0Z"/>
  <path class="cls-2" d="M782.59,352.86S432.96-447.65,259.47,872.74c0,0-93.12-381.82-37.32-629.49C259.65,76.84,391.04-21.32,563.03,68.76c76.53,40.08,196.47,185.65,219.56,284.1h0Z"/>
</svg>