<?xml version="1.0" encoding="UTF-8"?>
<svg id="Layer_1" data-name="Layer 1" xmlns="http://www.w3.org/2000/svg" viewBox="0 0 100 100">
  <defs>
    <style>
      .cls-1 {
        fill: #fff;
      }

      .cls-2 {
        fill: none;
        stroke: #fff;
        stroke-miterlimit: 10;
        stroke-width: .75px;
      }
    </style>
  </defs>
  <path class="cls-2" d="M77.4401,80.2537c-1.6025,0-3.1756-.6618-4.3166-1.8143-1.054-1.0655-1.6549-2.4415-1.7095-3.9003,0,0-22.8469-.0262-31.1425-.0262-3.8982,0-11.6935.0115-11.6935.0126-.0315,3.0728-2.7225,5.7115-5.9946,5.7115l-1.4599-.0126-3.9915.0105c-1.1316,0-2.2621-.0073-3.3927-.0346l-.3325-.021c-2.9019-.2957-5.6632-2.7152-5.3633-7.4513.0094-3.1032.0063-6.2065.0031-9.3108-.0031-3.4063-.0063-6.8137.0063-10.22.0514-2.3104.1143-5.0854,1.3959-7.7618.064-.1384.13-.2748.1982-.409-2.8505-1.0718-4.6134-4.2097-4.1425-7.6275.4845-3.5112,3.141-5.9852,6.4613-6.0145.2936-.0178.7603-.0283,1.227-.0283,1.3172,0,2.6701.0849,4.1331.259.5349.087,1.3623.2244,2.2527.5737.754-1.7011,1.5102-3.4032,2.3041-5.0875,1.5616-3.3738,4.7424-5.7765,8.2903-6.2411,3.8709-.5485,7.7618-.7415,10.7129-.8474,2.9103-.1751,6.0282-.2664,9.1639-.2664,5.2899,0,10.8723.2601,16.5932.7729l.6271.0608c2.0052.1898,4.5023.4258,6.8598,1.8594,2.7655,1.786,3.9789,4.5578,4.7036,6.2138.5097,1.1022,1.0299,2.2884,1.55,3.4787,1.8395-.6523,3.6129-.6848,5.0497-.711.3178-.0063,1.1987-.0294,1.1987-.0294l.4289-.001c1.1882,0,4.3439,0,6.26,2.8494,1.3602,2.2097,1.6109,4.8693.7488,7.0916-.688,1.7745-2.0513,3.1274-3.7828,3.7744.0671.1321.1321.2664.1961.4017,1.2847,2.474,1.399,5.2353,1.4903,7.4534l.0073.2349c.0273,3.8489.021,7.6978.0157,11.5477-.0052,2.8809-.0094,5.7629,0,8.6448.1196,1.7776-.4866,3.5857-1.6507,4.8892-1.1243,1.2585-2.6565,1.9517-4.3156,1.9517l-8.1466.0126-.4436.0115Z"/>
  <path class="cls-1" d="M41.0402,24.3047c8.4005-.5004,16.8356-.2588,25.2189.4935,1.9155.1933,3.9483.283,5.6395,1.3115,1.5151.9802,2.302,2.6713,2.9992,4.2658,1.3598,2.944,2.5747,5.9604,4.0001,8.8768.2209.6765,1.1113.5833,1.5773.2174.3589-1.0768-.0069-2.6368,1.2114-3.2408,1.5531-.5936,3.2546-.4694,4.8871-.5419,1.101.0035,2.4815-.0932,3.1821.9491.8766,1.4289.742,3.9587-1.1355,4.5005-2.164.673-4.4488.7869-6.6887,1.0319,1.8085,1.4461,3.6584,3.0027,4.6558,5.1494.9422,1.8189,1.0147,3.9069,1.0975,5.9087.0483,6.7819-.0069,13.5637.0173,20.349.1208,1.0665-.5488,2.4401-1.7809,2.3538-2.7645.0276-5.529-.0069-8.2935.0173-.956.1139-1.9327-.6661-1.9224-1.6428-.0483-1.3529.0069-2.7058-.0173-4.0553-17.1255-.0173-34.2544-.0518-51.3799-.0173,0,1.3564.0483,2.7162-.0207,4.076-.0104.9388-.9319,1.7222-1.8603,1.6256-2.8612-.0207-5.7258.0414-8.5835-.0276-1.4599-.1484-1.5945-1.8775-1.5048-3.0199.0207-6.5575-.0138-13.1151.0104-19.6726.0449-1.9983.0932-4.0829.9733-5.9225.9871-2.1226,2.7542-3.7309,4.6179-5.0804-2.1916-.3106-4.435-.459-6.5541-1.132-2.4919-.7248-2.0915-5.3737.6178-5.3979,1.6049-.0794,3.2201.0104,4.8146.2002.8076.1346,1.7257.3451,2.2089,1.0734.3555.7869.321,1.6808.5833,2.4988.5108.2243,1.2459.4832,1.491-.2105,1.6083-3.4099,3.0579-6.8958,4.6662-10.3091.9112-1.9673,2.7783-3.5273,4.963-3.8137,3.4134-.4832,6.8647-.6903,10.3091-.8145M33.0848,27.8976c-1.2873.1415-2.7576.2243-3.6929,1.2425-1.0354,1.1596-1.4979,2.6851-2.1536,4.0657-1.0043,2.3469-2.2434,4.5972-3.0406,7.0269,1.6566.5177,3.4099.2727,5.1149.3279,14.9546-.0587,29.9092.0552,44.8673.1173.566-.0345,1.9293.1035,1.629-.8525-1.1148-2.8301-2.4781-5.5601-3.724-8.3384-.635-1.4116-1.5255-3.0406-3.2339-3.2546-3.4996-.5281-7.0476-.6558-10.5749-.8249-8.3971-.4728-16.808-.0656-25.1913.4901M15.9593,51.8325c.0138,1.0768.0345,2.6886,1.3081,3.0544,3.8551,1.0112,7.7551,1.9431,11.7311,2.3262.5591.0587,1.1148-.0449,1.6635-.1346.1001-1.2183-.5073-2.3296-1.3219-3.1856-1.6773-1.9258-4.2382-2.6023-6.5299-3.4927-1.7188-.5591-3.4237-1.2563-5.2219-1.4703-1.4219.0725-1.6566,1.7878-1.629,2.9026M81.1584,49.1509c-2.7714.8421-5.5635,1.6773-8.19,2.9164-1.774.9422-3.5238,2.5471-3.7378,4.6455.3451.6868,1.1838.4659,1.8085.4763,3.9173-.4004,7.762-1.315,11.5861-2.2227.9905-.145,1.2218-1.2908,1.315-2.1122.0587-1.1907.1415-2.5712-.6765-3.5376-.5419-.6178-1.4289-.321-2.1053-.1657M33.5197,62.6352l-.2105.1864c0,1.6118,1.0078,3.8068,2.8922,3.7378,9.322.0104,18.6441.0414,27.9661.0449,1.1907.0173,1.7981-1.1942,2.2365-2.1226.2347-.6109.6937-1.6566-.1553-1.9845-2.1812-.2174-4.3866-.0552-6.5782-.1173-8.5144.0104-17.0358-.0483-25.5502.038-.1484.0552-.4487.1622-.6005.2174Z"/>
</svg>