<?xml version="1.0" encoding="UTF-8"?>
<svg id="Layer_1" data-name="Layer 1" xmlns="http://www.w3.org/2000/svg" viewBox="0 0 100 100">
  <defs>
    <style>
      .cls-1 {
        fill: #fff;
      }
    </style>
  </defs>
  <path class="cls-1" d="M10.7217,11.7689c1.8844-1.1527,4.7007-.8283,6.0122,1.0458,3.2926,4.4039,6.5851,8.8078,9.857,13.2289.4728.5591.8594,1.3115,1.629,1.5013,1.7015.5142,3.403,1.0596,4.9734,1.912-3.9863,2.9889-7.9001,6.0743-11.8933,9.0528-.4245-1.5531-.604-3.1545-.5867-4.7559.0828-.6005-.2588-1.0906-.5971-1.5393-3.6204-4.894-7.4411-9.6465-10.9994-14.5853-1.1631-1.9396-.4004-4.7904,1.6049-5.8604Z"/>
  <path class="cls-1" d="M78.4678,21.8917c1.0078-1.705,3.2719-2.4435,5.1252-1.805,1.629.4935,2.9612,1.9362,3.2201,3.6377.3624,1.4323-.3313,2.8335-1.1044,3.9966-3.1752,4.9009-6.3435,9.8018-9.467,14.7372-.459.7835-1.0941,1.4875-1.3529,2.3711-.1035,1.0147-.0311,2.0397-.0449,3.0579-3.4755-2.4332-7.02-4.7663-10.5714-7.0821,1.1976-.5902,2.7576-.7558,3.4651-2.0397,3.6757-5.5601,7.2029-11.2168,10.7302-16.8736Z"/>
  <path class="cls-1" d="M23.6469,43.6212c4.8457-3.7827,9.819-7.3997,14.5508-11.3238,2.0052.9629,4.0933,1.7395,6.1365,2.6161.8801.4314,1.9983.8801,2.2261,1.9569-.0276.818-.6385,1.5462-1.4565,1.6635-2.2365.3589-4.2417-1.1942-6.4747-.8835.5281,1.5773,1.6912,2.8059,2.5574,4.1968,1.5842,2.5057,3.5825,4.7214,5.2046,7.196,1.1631,1.4944-1.3322,3.5963-2.5712,2.1812-2.0915-2.302-3.5859-5.0976-5.743-7.3444-.9284-.3417-.4487.8283-.1208,1.1907,1.8465,2.5436,3.7102,5.0769,5.5014,7.662.4418.6454.8456,1.5393.3693,2.2813-.6178,1.0837-2.3987,1.0941-2.9889-.0276-1.736-2.6092-3.6688-5.0838-5.5118-7.6205-.3831-.4625-.7558-1.1286-1.4841-1.0009,1.3529,2.8542,3.5583,5.2184,5.1563,7.9381.5833.9112-.2071,2.0432-1.1148,2.3366-.8835.214-1.4979-.5798-1.9396-1.208-1.1665-1.8499-2.4953-3.5894-3.7136-5.4013-.5591-.7835-1.0492-1.7257-2.0466-2.0121.9422,2.2641,2.768,4.0346,3.7585,6.2745.1484,1.1493-1.6256,2.0501-2.3504.9802-2.9095-3.6929-5.2736-7.7827-7.945-11.6517Z"/>
  <path class="cls-1" d="M59.413,42.7688c.4521-.9767.9422-2.0294,1.8706-2.6437,1.3426.459,2.409,1.4254,3.5859,2.1812,2.7058,1.7809,5.3565,3.6446,8.045,5.4566,1.063.742,2.3124,1.2701,3.1959,2.2434.2174,1.2528-.7489,2.2606-1.6359,2.9854-3.2442-2.1295-6.3919-4.397-9.6465-6.5058-1.8327-1.1976-3.6619-2.4056-5.4151-3.7171Z"/>
  <path class="cls-1" d="M35.0915,29.3017c1.1769-.9008,2.6161-1.705,4.1554-1.4185,1.8119.2588,3.1166,1.7015,4.0691,3.1545-.5557.4073-1.1182.8042-1.6877,1.1873-.7973-.956-2.1053-2.1053-3.3823-1.2183-4.8146,3.8724-9.7397,7.5998-14.6474,11.348-.956.742-2.3504,1.1527-2.7093,2.4435-.3555.9181.3555,1.6704.8387,2.3642-.459.4866-.9526.9457-1.4841,1.3529-1.0389-.8594-1.7912-2.0535-2.1433-3.3512-.3175-1.6981.6765-3.3443,1.9949-4.3383,4.9906-3.8482,10.0054-7.6723,14.996-11.524Z"/>
  <path class="cls-1" d="M47.7096,32.8979c.4418-.2347,1.2597-.107,1.0906.5557-.0104,1.1355-2.2192.2623-1.0906-.5557Z"/>
  <path class="cls-1" d="M50.374,48.6533c3.051-1.4461,6.0847-2.944,8.9838-4.68,3.6964,2.6782,7.624,5.0182,11.3342,7.6792.8628.6523,1.9431,1.1148,2.5574,2.0432-1.4496,4.0967-4.0415,7.6585-6.1399,11.4343-.7075,1.1044-1.208,2.3745-2.1502,3.3064-.8525.4038-1.8292-.3589-2.0777-1.1665.9974-2.3676,2.6644-4.4281,3.4513-6.8923-.9491.4763-1.3529,1.4944-1.9086,2.3296-1.3115,2.0708-2.3987,4.2796-3.7205,6.3401-.8283,1.1735-2.9198.2968-2.7404-1.0665,1.277-3.1304,3.5376-5.8051,4.5937-9.0287-.9042.1277-1.2356,1.0078-1.6704,1.6739-1.4358,2.3711-2.7887,4.787-4.2624,7.1339-.4418.635-.9457,1.4875-1.843,1.3874-.9457.0518-1.7636-.9181-1.598-1.8396.0759-.604.4245-1.1217.7179-1.6394,1.5531-2.4953,3.0406-5.0286,4.4936-7.5826.2727-.4659.4073-.9733.4073-1.5186-.4487.1829-.8042.4728-1.0596.8697-1.5255,2.2744-2.8439,4.68-4.3901,6.9406-.8387,1.3564-3.296.3037-2.9302-1.2252.5695-1.8603,1.8189-3.4168,2.7369-5.1114,1.3702-2.5264,3.2477-4.8008,4.1865-7.5446-2.3504-.3486-4.359,1.6773-6.7059,1.2425-1.5082-.2865-1.6463-2.5126-.2658-3.0855Z"/>
  <path class="cls-1" d="M45.8838,23.4655c.6937-.5073,1.912.069,1.843.9802.0759.8456-.9974,1.6014-1.7636,1.1665-.7904-.4142-.7869-1.6532-.0794-2.1467Z"/>
  <path class="cls-1" d="M16.1679,37.9231c.2554.0621.7696.1829,1.025.245-1.522,1.7084-2.0363,4.1071-1.2701,6.2814-.2312.0725-.6972.214-.9284.283-.818-.9042-.7731-2.2434-.6765-3.3823.2105-1.2839.6558-2.73,1.8499-3.4272Z"/>
  <path class="cls-1" d="M47.4438,42.6652c1.1044-.9526,2.661.9526,1.4496,1.8119-1.1424,1.0147-2.6403-.8801-1.4496-1.8119Z"/>
  <path class="cls-1" d="M36.3616,24.3766c1.3529-.4004,2.8163-.1242,4.145.2554,3.1752.9802,5.9294,3.365,7.1788,6.4643-.2968.3279-.6005.6488-.9008.9698-.5902-.8318-.9526-1.7981-1.56-2.6127-1.2183-1.5876-2.9095-2.7921-4.7801-3.4824-1.3219-.4935-2.7507-.4314-4.1278-.5902.0104-.2519.0345-.7524.0449-1.0043Z"/>
  <path class="cls-1" d="M14.1661,35.6176c1.2218-.4625,1.6601,1.629.4142,1.7498-1.0147.1967-1.4116-1.5151-.4142-1.7498Z"/>
  <path class="cls-1" d="M47.2747,35.5831c6.9061-.0897,13.8295.0449,20.7011.8007-.9112,1.0734-1.4012,3.1027-3.1649,2.8232-5.9397-.1242-11.8864-.5798-17.8296-.2796.6799-1.0181.7041-2.2227.2934-3.3443Z"/>
  <path class="cls-1" d="M75.7344,48.2149c.1657-1.415-.0345-2.9336.6281-4.2417,1.3012,2.2399,2.0259,4.7663,3.3167,7.0097.2347.6661.9767.4073,1.522.4694.3313-1.2011.0794-2.9889,1.4599-3.579,1.6773-.5764,3.4927-.459,5.2426-.5419,1.1355-.0242,2.7335.038,3.1545,1.346.5833,1.3874.6661,3.5894-1.0319,4.2003-2.2848.7938-4.7283.9802-7.1166,1.2459,2.0397,1.4219,3.9759,3.1649,4.9768,5.4911.8904,2.0708.8594,4.3659.8732,6.5748.0035,6.913.0587,13.826.0552,20.739.1001,1.0492-.8456,2.0604-1.9155,1.9465-2.8957.0207-5.7948.0207-8.6904.0207-.9181.0828-1.7119-.742-1.7636-1.6221-.0414-1.4254.0276-2.8542.0069-4.2796-17.6777-.0483-35.3554.0069-53.0297-.0414-.0138,1.4599.0621,2.9233-.0173,4.3866-.1001.849-.8594,1.5807-1.736,1.522-2.8991.0276-5.7982-.0035-8.6939,0-1.2183.1381-2.0294-1.17-1.881-2.271.0311-7.8207-.0449-15.6449.0759-23.4656.0449-3.7827,2.5989-6.8992,5.605-8.9148-2.2365-.4625-4.5765-.5419-6.7266-1.3633-1.6981-.6972-1.7774-2.9716-1.0492-4.4039.4832-.9767,1.6635-1.1389,2.6368-1.1182,1.8016.0173,3.6377-.0069,5.391.459.8249.214,1.2839,1.0527,1.277,1.8706.176.6972-.1588,2.0225.9457,1.9396.7904.1139.9767-.7524,1.3115-1.2701.5626-1.1493,1.7222-1.8879,2.1812-3.1027,0-.8525-.5177-1.7602.2554-2.4573.7662.994,1.491,2.0156,2.1778,3.0648-.7489,1.415-1.5048,2.8542-1.8258,4.4384,1.5876.3348,3.2201.038,4.8181.2727,1.1735,1.3184,1.7774,3.1994,3.3996,4.0967,1.1355.5039,2.4056-.0863,3.1545-.9802.6903.9457,1.5013,2.1295,2.8094,2.1329,1.1907.0518,2.1398-.8318,2.585-1.8637.8766.8111,2.1674,1.3978,3.3167.7731,1.5635-.6661,2.0673-2.5816,1.4047-4.0691,3.4651-.0759,6.9268-.0069,10.392-.0587-1.8913,3.2339-3.9863,6.3573-5.7085,9.681-.9457,1.9431.8456,4.0967,2.8888,3.9311-.4694,1.0837-.5488,2.5471.5073,3.3202,1.1942,1.1355,3.082.8111,4.1554-.3175.6454.7662,1.4254,1.6704,2.5609,1.4634,1.2873.0932,2.0156-1.0975,2.5954-2.0501.6316.5453,1.3288,1.1907,2.2468,1.025,1.4289-.1001,2.1743-1.5117,2.7921-2.6196,2.302-4.328,5.3703-8.2832,6.9889-12.9494,1.6187-.3106,2.7162-1.8327,3.0717-3.3581.2519-1.1596-.8973-1.7912-1.5945-2.4815M26.6219,53.6646c-1.0975.5246-.2347,2.3538.9526,1.9155,1.346-.4038.2865-2.7921-.9526-1.9155M20.7512,54.2548c-.9457,1.0389.8559,2.5436,1.629,1.315.8628-.9388-.8352-2.2572-1.629-1.315M26.1664,56.9054c.8042,1.4875,2.2089,2.5816,3.7343,3.2719.1622-.2278.4901-.6868.6523-.9181-1.2632-.7041-2.4435-1.5565-3.3443-2.6989-.2623.0863-.7835.2588-1.0423.3451M35.7852,60.1289c-1.4323.2312-2.8335-.2381-4.2486-.3451-.0345.5626.0035,1.2459.7317,1.2597,2.0225.3348,4.2866.497,6.1572-.497.4866-.1967.3037-.7317.3348-1.1286-1.0078.1795-1.9707.5384-2.975.711M15.8987,61.1057c-1.0906.7144-1.0527,2.2158-1.0389,3.3719.0311,1.0768.2968,2.5885,1.6083,2.7438,4.1071.8939,8.2107,2.0087,12.4282,2.2054.6592.1346,1.4358-.3969,1.0527-1.1148-.8697-2.9612-3.8379-4.4419-6.5472-5.3461-2.2882-.7351-4.5281-1.7533-6.9199-2.057-.145.0483-.4383.1484-.5833.1967M81.8536,61.2679c-2.6817.8111-5.3703,1.6325-7.9381,2.7507-1.8499.7938-3.579,2.2468-4.0657,4.2762-.3003.5798.1622,1.1942.7904,1.1665,3.9932-.107,7.9001-1.101,11.7828-1.9638.8594-.2209,2.0087-.3658,2.3089-1.3667.4073-1.4806.5557-3.3064-.3796-4.6213-.6143-.8111-1.6842-.4556-2.4988-.2416M32.5617,75.0628c.0345,1.7015.8939,4.1174,2.9302,4.0933,9.7811.0207,19.5621-.0173,29.3432.0345,1.6946-.321,2.6161-2.485,2.4263-4.0484-1.346-.4659-2.8128-.1657-4.2072-.2519-8.8492-.0345-17.6984-.0138-26.5476-.0276-1.3184.0104-2.6506-.0863-3.9449.2002Z"/>
  <path class="cls-1" d="M40.2512,38.9619c.8663-.0104,1.7395.0311,2.6058.107-.8766.2692-1.9535.9112-2.6058-.107Z"/>
  <path class="cls-1" d="M26.6219,53.6646c1.239-.8766,2.2986,1.5117.9526,1.9155-1.1873.4383-2.0501-1.3909-.9526-1.9155Z"/>
  <path class="cls-1" d="M26.1664,56.9054c.2588-.0863.78-.2588,1.0423-.3451.9008,1.1424,2.0812,1.9949,3.3443,2.6989-.1622.2312-.4901.6903-.6523.9181-1.5255-.6903-2.9302-1.7843-3.7343-3.2719Z"/>
  <path class="cls-1" d="M35.7852,60.1289c1.0043-.1726,1.9673-.5315,2.975-.711-.0311.3969.1519.9319-.3348,1.1286-1.8706.994-4.1347.8318-6.1572.497-.7282-.0138-.7662-.6972-.7317-1.2597,1.415.107,2.8163.5764,4.2486.3451Z"/>
</svg>