<?xml version="1.0" encoding="UTF-8"?>
<svg id="Layer_1" data-name="Layer 1" xmlns="http://www.w3.org/2000/svg" viewBox="0 0 100 100">
  <defs>
    <style>
      .cls-1 {
        fill: #fff;
      }
    </style>
  </defs>
  <path class="cls-1" d="M46.8231,12.9925c.2071-.994,1.1596-1.6325,2.1433-1.6463,1.384-.1001,3.2546-.1829,3.969,1.2873.535,1.5048.0966,3.1511.3175,4.7111.0725,1.6877,1.6014,3.1925,3.3064,3.1614,4.963.069,9.926-.0069,14.889.0311,1.1113-.0207,2.2399.5419,2.799,1.5255.7351,1.2528.4866,2.7749.4452,4.1623-6.8336.2312-13.6811.0345-20.5182.1208-9.6361-.0242-19.2688.0794-28.9049-.0173-.2968-1.5945-.5177-3.5273.6385-4.8457.8421-.9595,2.2192-.9905,3.3996-.9767,4.7111-.0104,9.4256.0794,14.1401-.0138,1.4668.0207,2.8197-1.0803,3.1235-2.5091.3175-1.6463-.0276-3.3409.2519-4.9906Z"/>
  <path class="cls-1" d="M32.3068,27.4571c.6937,0,1.3874.0242,2.0812.0725-.4832,2.975-1.1976,5.9052-1.9051,8.832-.711.0966-1.4289.1829-2.1433.2554.6385-3.0579,1.2942-6.1123,1.9673-9.1598Z"/>
  <path class="cls-1" d="M43.2579,27.5019c.7075-.0173,1.4185-.0173,2.1329-.0069-.1381,2.7196-.3279,5.4358-.5108,8.1555-.6972.0138-1.3943.0173-2.0846.0069.0552-2.7231.3762-5.4324.4625-8.1555Z"/>
  <path class="cls-1" d="M71.0894,27.4812c.6903-.0242,1.384-.0345,2.0812-.0345,1.0423,4.0001,2.3607,7.9277,3.7792,11.8139-.8249.0414-1.6497.0552-2.4712.0518-1.132-3.9414-2.4056-7.8483-3.3892-11.8312Z"/>
  <path class="cls-1" d="M20.4791,39.2123c.7558-.3382,1.8741.3244,1.7153,1.1873-.0173.8663-1.1044,1.4944-1.8396,1.0216-.8766-.4245-.78-1.8672.1242-2.2089Z"/>
  <path class="cls-1" d="M37.7323,27.4778c.742-.0069,1.4806.0104,2.2261.0345-.2899,2.8059-.7524,5.5877-1.1769,8.3764-.7179.0621-1.4392.1001-2.1571.1312.3244-2.8542.8145-5.6843,1.1079-8.542Z"/>
  <path class="cls-1" d="M56.9665,27.4674c.6937-.0138,1.3874-.0069,2.0846.0207.39,2.7783.7765,5.5532,1.2356,8.3212-.7317-.0138-1.4634-.0311-2.195-.0518-.3348-2.7714-.8628-5.5152-1.1251-8.2901Z"/>
  <path class="cls-1" d="M14.9362,35.0983c1.7015-.7731,3.8137.711,3.6032,2.5747-.0138,1.9155-2.447,2.9578-3.9794,1.9638-1.7153-.9698-1.4081-3.8103.3762-4.5385Z"/>
  <path class="cls-1" d="M29.5561,27.4571c.6834.0035,1.3702.0207,2.057.0587-.7006,3.0924-1.4185,6.1848-2.2365,9.2461-.9284.5142-1.9051.956-2.7093,1.6635.8663-3.6826,1.9983-7.2927,2.8888-10.9683Z"/>
  <path class="cls-1" d="M68.1868,27.4536c.6903-.0069,1.3771,0,2.0708.0173,1.0941,3.655,2.0501,7.3548,3.1545,11.0063-.8145-.7696-1.8706-1.1631-2.8266-1.705-.8145-3.0993-1.6014-6.2124-2.3987-9.3186Z"/>
  <path class="cls-1" d="M26.7053,27.5364c.711-.0242,1.4254-.038,2.1433-.0345-.994,3.9035-2.2537,7.7379-3.2339,11.6448-.8801,0-1.7567-.0242-2.6334-.0449,1.3667-3.8137,2.6092-7.6723,3.724-11.5654Z"/>
  <path class="cls-1" d="M51.4582,27.4916c.7006-.0311,1.4047-.0345,2.1088-.0104.0621,2.6989.4107,5.3806.4866,8.0796-.7144-.0276-1.4289-.0449-2.1433-.0587-.0932-2.6748-.4142-5.3358-.4521-8.0105Z"/>
  <path class="cls-1" d="M59.7552,27.464c.6868-.0138,1.3771-.0035,2.0673.0242.5315,2.8508,1.0458,5.7085,1.5945,8.5593-.7731-.0483-1.5427-.1173-2.3055-.2278-.4245-2.7887-.9491-5.5635-1.3564-8.3557Z"/>
  <path class="cls-1" d="M62.5508,27.4536c.6765-.0035,1.3529.0138,2.0328.0449.7317,2.9233,1.277,5.8914,1.9155,8.8354-.7317-.0794-1.4599-.1484-2.1847-.2174-.6523-2.875-1.2114-5.7706-1.7636-8.6628Z"/>
  <path class="cls-1" d="M65.3153,27.4674c.6937-.0104,1.3909-.0035,2.0915.0207.887,3.051,1.4875,6.1813,2.3987,9.2289-.7731-.107-1.5427-.2002-2.3124-.3037-.849-2.9509-1.4323-5.9708-2.1778-8.9458Z"/>
  <path class="cls-1" d="M79.0654,40.4893c1.3564-.6799,2.9923.9526,2.3607,2.3055-.4176.9767-1.6808,1.3633-2.5885.8559-1.1182-.6903-1.0216-2.6713.2278-3.1614Z"/>
  <path class="cls-1" d="M85.6022,42.567c1.1907-.6143,2.6506.711,2.2641,1.9673-.2381,1.3529-2.233,1.9155-3.0682.7869-.7904-.8835-.2761-2.3883.8042-2.7542Z"/>
  <path class="cls-1" d="M15.6334,43.9993c.8663-.6627,2.2296.1898,2.126,1.2459,0,.7765-.8145,1.4599-1.5876,1.2839-1.2287-.0414-1.5807-1.9535-.5384-2.5298Z"/>
  <path class="cls-1" d="M45.9844,27.4812c.7006-.0138,1.4047-.0069,2.1088.0173-.1104,2.7093.0242,5.4289-.2416,8.1279-.6972-.0449-1.3909-.0828-2.0846-.107.0104-2.6817.1553-5.3599.2174-8.0381Z"/>
  <path class="cls-1" d="M48.6799,27.4812c.7144-.0173,1.4323-.0104,2.1502.0207.0311,2.6748.1104,5.3461.1657,8.0174-.742.0035-1.4841,0-2.2261,0,.0242-2.6817-.0828-5.3599-.0897-8.0381Z"/>
  <path class="cls-1" d="M33.4492,36.2131c.5522-2.9129,1.1079-5.8224,1.598-8.7457.7041-.0104,1.4081,0,2.1157.0311-.3935,2.8888-.9388,5.7534-1.5151,8.6111-.7317.0414-1.4668.0759-2.1985.1035Z"/>
  <path class="cls-1" d="M39.7064,35.7955c.2381-2.7714.6281-5.529.7973-8.3074.7317-.0138,1.4634-.0138,2.195,0-.2209,2.768-.5591,5.5256-.8697,8.2866-.7075.0173-1.4185.0276-2.1226.0207Z"/>
  <path class="cls-1" d="M82.9585,35.4572c1.0112-.5108,2.3262.3969,2.1778,1.5358.0483,1.2494-1.6497,1.9707-2.5643,1.17-.9319-.6972-.7006-2.2882.3865-2.7058Z"/>
  <path class="cls-1" d="M41.0387,37.0483c8.4005-.5004,16.8356-.2588,25.2189.4935,1.9155.1933,3.9483.283,5.6395,1.3115,1.5151.9802,2.302,2.6713,2.9992,4.2658,1.3598,2.944,2.5747,5.9604,4.0001,8.8768.2209.6765,1.1113.5833,1.5773.2174.3589-1.0768-.0069-2.6368,1.2114-3.2408,1.5531-.5936,3.2546-.4694,4.8871-.5419,1.101.0035,2.4815-.0932,3.1821.9491.8766,1.4289.742,3.9587-1.1355,4.5005-2.164.673-4.4488.7869-6.6887,1.0319,1.8085,1.4461,3.6584,3.0027,4.6558,5.1494.9422,1.8189,1.0147,3.9069,1.0975,5.9087.0483,6.7819-.0069,13.5637.0173,20.349.1208,1.0665-.5488,2.4401-1.7809,2.3538-2.7645.0276-5.529-.0069-8.2935.0173-.956.1139-1.9327-.6661-1.9224-1.6428-.0483-1.3529.0069-2.7058-.0173-4.0553-17.1255-.0173-34.2544-.0518-51.3799-.0173,0,1.3564.0483,2.7162-.0207,4.076-.0104.9388-.9319,1.7222-1.8603,1.6256-2.8612-.0207-5.7258.0414-8.5835-.0276-1.4599-.1484-1.5945-1.8775-1.5048-3.0199.0207-6.5575-.0138-13.1151.0104-19.6726.0449-1.9983.0932-4.0829.9733-5.9225.9871-2.1226,2.7542-3.7309,4.6179-5.0804-2.1916-.3106-4.435-.459-6.5541-1.132-2.4919-.7248-2.0915-5.3737.6178-5.3979,1.6049-.0794,3.2201.0104,4.8146.2002.8076.1346,1.7257.3451,2.2089,1.0734.3555.7869.321,1.6808.5833,2.4988.5108.2243,1.2459.4832,1.491-.2105,1.6083-3.4099,3.0579-6.8958,4.6662-10.3091.9112-1.9673,2.7783-3.5273,4.963-3.8137,3.4134-.4832,6.8647-.6903,10.3091-.8145M33.0833,40.6411c-1.2873.1415-2.7576.2243-3.6929,1.2425-1.0354,1.1596-1.4979,2.6851-2.1536,4.0657-1.0043,2.3469-2.2434,4.5972-3.0406,7.0269,1.6566.5177,3.4099.2727,5.1149.3279,14.9546-.0587,29.9092.0552,44.8673.1173.566-.0345,1.9293.1035,1.629-.8525-1.1148-2.8301-2.4781-5.5601-3.724-8.3384-.635-1.4116-1.5255-3.0406-3.2339-3.2546-3.4996-.5281-7.0476-.6558-10.5749-.8249-8.3971-.4728-16.808-.0656-25.1913.4901M15.9578,64.5761c.0138,1.0768.0345,2.6886,1.3081,3.0544,3.8551,1.0112,7.7551,1.9431,11.7311,2.3262.5591.0587,1.1148-.0449,1.6635-.1346.1001-1.2183-.5073-2.3296-1.3219-3.1856-1.6773-1.9258-4.2382-2.6023-6.5299-3.4927-1.7188-.5591-3.4237-1.2563-5.2219-1.4703-1.4219.0725-1.6566,1.7878-1.629,2.9026M81.1569,61.8944c-2.7714.8421-5.5635,1.6773-8.19,2.9164-1.774.9422-3.5238,2.5471-3.7378,4.6455.3451.6868,1.1838.4659,1.8085.4763,3.9173-.4004,7.762-1.315,11.5861-2.2227.9905-.145,1.2218-1.2908,1.315-2.1122.0587-1.1907.1415-2.5712-.6765-3.5376-.5419-.6178-1.4289-.321-2.1053-.1657M33.5182,75.3788l-.2105.1864c0,1.6118,1.0078,3.8068,2.8922,3.7378,9.322.0104,18.6441.0414,27.9661.0449,1.1907.0173,1.7981-1.1942,2.2365-2.1226.2347-.6109.6937-1.6566-.1553-1.9845-2.1812-.2174-4.3866-.0552-6.5782-.1173-8.5144.0104-17.0358-.0483-25.5502.038-.1484.0552-.4487.1622-.6005.2174Z"/>
  <path class="cls-1" d="M54.2296,27.495c.6799-.0276,1.3667-.0276,2.0535-.0035.1829,2.7369.6523,5.4393.9112,8.1693-.7317-.0104-1.4599-.0207-2.1881-.0276-.2243-2.7162-.6454-5.4151-.7765-8.1382Z"/>
</svg>