<?xml version="1.0" encoding="UTF-8"?>
<svg id="Layer_1" data-name="Layer 1" xmlns="http://www.w3.org/2000/svg" viewBox="0 0 100 100">
  <defs>
    <style>
      .cls-1 {
        fill: #fff;
      }
    </style>
  </defs>
  <path class="cls-1" d="M75,0H25C11.2,0,0,11.2,0,25v50c0,13.8,11.2,25,25,25h50c13.8,0,25-11.2,25-25V25C100,11.2,88.8,0,75,0ZM50,75c-13.8,0-25-11.2-25-25s11.2-25,25-25,25,11.2,25,25-11.2,25-25,25ZM76.75,28.1c-2.75,0-5-2.25-5-5s2.25-5,5-5,5,2.25,5,5-2.25,5-5,5Z"/>
  <circle class="cls-1" cx="50" cy="50" r="15"/>
</svg>