<?xml version="1.0" encoding="UTF-8"?>
<svg id="Layer_1" data-name="Layer 1" xmlns="http://www.w3.org/2000/svg" viewBox="0 0 100 100">
  <defs>
    <style>
      .cls-1 {
        fill: #fff;
      }
    </style>
  </defs>
  <path class="cls-1" d="M19.2412,19.2413v12.3035h57.4163v-12.3035H19.2412ZM15.1401,11.0389h65.6186c2.2651,0,4.1012,1.8362,4.1012,4.1012v20.5058c0,2.265-1.8361,4.1012-4.1012,4.1012H15.1401c-2.265,0-4.1012-1.8361-4.1012-4.1012V15.1401c0-2.265,1.8362-4.1012,4.1012-4.1012ZM23.3424,47.9494h24.607c2.2651,0,4.1012,1.8361,4.1012,4.1012v12.3035h4.1012v24.607h-16.4047v-24.607h4.1012v-8.2023h-24.607c-2.265,0-4.1012-1.8361-4.1012-4.1012v-8.2023h8.2023v4.1012ZM71.4581,55.0535l7.25-7.2496,7.25,7.2496c4.004,4.004,4.004,10.4961,0,14.5001-4.004,4.004-10.4961,4.004-14.5001,0-4.004-4.004-4.004-10.4961,0-14.5001Z"/>
</svg>