<?xml version="1.0" encoding="UTF-8"?>
<svg id="Layer_1" data-name="Layer 1" xmlns="http://www.w3.org/2000/svg" viewBox="0 0 100 100">
  <defs>
    <style>
      .cls-1 {
        fill: #fff;
      }
    </style>
  </defs>
  <path class="cls-1" d="M15.96,12.3162c1.3771-1.1907,3.3961-1.8154,5.1321-1.063,1.5082.7144,2.5643,2.0639,3.724,3.2201,1.3391-.9112,2.3227.8663,3.2546,1.6049-1.8085,1.3943-3.4065,3.0475-5.284,4.3521-.6972-.9905-2.0501-2.2675-1.0492-3.5031-.566-.6765-1.2114-1.2873-1.9707-1.7464-2.6334,1.1873-4.2935,3.7136-6.2538,5.7258.4038.4452.8352.8732,1.1596,1.3874.1035.9422-.5488,1.7395-1.0458,2.4712.497.6385,1.3978,1.384.9042,2.2813-.5557,1.3667-1.3978,3.1787-3.1821,2.9371-.4901.7041-.994,1.6601-1.9638,1.7119-1.9189-.4073-3.5514-2.0121-3.9-3.9587-.3348-1.7809-.5108-3.7033.1346-5.4324,1.0147-1.9742,3.4203-2.5436,4.8008-4.1865,1.6981-2.0673,3.5066-4.0588,5.5394-5.8017Z"/>
  <path class="cls-1" d="M28.5643,16.903c1.3288.2071,2.5298.8594,3.7343,1.415.0932.1829.2761.5488.3658.7317-1.4427-.5073-3.0751-.9284-4.1002-2.1467Z"/>
  <path class="cls-1" d="M28.1328,17.538c1.5324.566,2.8025,1.6704,4.2244,2.4642.1035.2002.3175.6005.4211.8042-1.1562-.5971-2.2158-1.3598-3.3202-2.0466-.4901-.3451-1.0837-.6385-1.3253-1.2218Z"/>
  <path class="cls-1" d="M37.6861,21.514c-.3969-.0518-.2623-.78.1519-.5453,1.0285.4832,2.0742.9526,3.0648,1.5117.0345.1588.1001.4763.1312.635-1.1079-.5488-2.2537-1.0285-3.3478-1.6014Z"/>
  <path class="cls-1" d="M33.3996,23.3466c1.2114.5281,2.4642,1.2735,3.0751,2.4988-1.2701-.4418-2.3227-1.4047-3.0751-2.4988Z"/>
  <path class="cls-1" d="M37.1788,23.2638c1.1631.5212,2.7024.9422,3.1373,2.2917-1.0837-.6937-2.3883-1.2045-3.1373-2.2917Z"/>
  <path class="cls-1" d="M31.6567,24.6996c.069-.1415.2036-.4211.2727-.5626.7317.849,1.5462,1.667,1.9983,2.7127-.9008-.5384-1.6877-1.2839-2.271-2.1502Z"/>
  <path class="cls-1" d="M36.7094,26.1077c1.3667.8352,2.7749,1.7912,3.6343,3.1752-1.0078-.1242-1.4668-1.1044-2.2779-1.5807-.6212-.3727-1.1217-.9008-1.3564-1.5945Z"/>
  <path class="cls-1" d="M34.0967,26.8497c1.0354.566,1.7119,1.5738,2.233,2.6023-.994-.5729-2.2227-1.3115-2.233-2.6023Z"/>
  <path class="cls-1" d="M50.5872,27.2708c.8387.3348,1.6118.818,2.4297,1.2114-.1139.1898-.2243.3796-.3348.5729-.8973-.4659-1.8085-.9077-2.7024-1.3805.1519-.1001.4556-.3003.6074-.4038Z"/>
  <path class="cls-1" d="M43.8191,27.823c1.063-.2381,1.9051.6972,2.4884,1.453-.9664.0173-1.9983-.7006-2.4884-1.453Z"/>
  <path class="cls-1" d="M32.3642,28.5098c.9595.9733,1.8396,2.057,2.4608,3.2822-1.3805-.4038-2.126-1.9845-2.4608-3.2822Z"/>
  <path class="cls-1" d="M40.4852,29.6729c1.4875.2519,2.4919,1.6256,3.3202,2.7749-1.4116-.3969-2.4366-1.6601-3.3202-2.7749Z"/>
  <path class="cls-1" d="M36.454,29.6591c1.2045.7179,2.0052,1.9224,2.8266,3.0268-.2036-.0483-.6109-.1484-.8145-.1967-.7938-.8387-1.6083-1.7291-2.0121-2.8301Z"/>
  <path class="cls-1" d="M32.3814,33.6765c-.9077-.8628-1.9465-2.1053-1.6463-3.441.6281,1.0975,1.4461,2.1571,1.6463,3.441Z"/>
  <path class="cls-1" d="M34.7525,32.5513c.145-.0345.4383-.107.5867-.1415.8076.9112,1.4737,1.9569,1.9914,3.0613-1.2425-.5108-1.9707-1.7878-2.5781-2.9198Z"/>
  <path class="cls-1" d="M44.0435,32.7377c.9491.2588,1.5738,1.0389,2.0881,1.8223-.9526-.2485-1.9776-.6972-2.0881-1.8223Z"/>
  <path class="cls-1" d="M39.4705,33.3865c1.2666.5142,2.2054,1.736,2.8266,2.9233-1.2356-.6385-2.2641-1.6428-2.8266-2.9233Z"/>
  <path class="cls-1" d="M32.3814,34.4703c.1381-.1208.2865-.2278.4452-.321.5522.9836,1.1079,1.9707,1.6221,2.975-.1139.1277-.3451.3865-.4625.5142-.5764-1.0354-1.1113-2.0915-1.6049-3.1683Z"/>
  <path class="cls-1" d="M27.308,18.4319c.1553,0,.459-.0069.6143-.0104,1.491,1.0941,2.6368,2.6161,4.2866,3.4996.4659.1898.5039.6972.6143,1.1251-.5212-.2865-1.0389-.6005-1.4599-1.0285-1.2563-1.3012-2.8991-2.1778-4.0553-3.5859Z"/>
  <path class="cls-1" d="M26.6971,19.1567c1.4461.4211,2.4332,1.7602,3.1338,3.0234.5798.5488,1.1458,1.1113,1.6497,1.7326-1.0596.2243-1.5393-1.7809-2.4366-.9526-.038.107-.1173.3141-.1553.4211.5557.6281,1.132,1.2494,1.5635,1.9776-1.0699-.2796-1.6359-1.3012-2.2537-2.1157.1001-.1933.3072-.5798.4073-.7731.1139-.0587.3417-.1726.4556-.2312.0518-.0966.1553-.2899.2071-.3831-.9181-.8387-1.8499-1.6773-2.5712-2.6989Z"/>
  <path class="cls-1" d="M24.861,20.0782c1.1562.7179,1.7602,2.0052,2.4297,3.1373-1.3909-.3796-1.7878-2.0156-2.4297-3.1373Z"/>
  <path class="cls-1" d="M33.4375,20.7685c1.2908.535,2.6161,1.2287,3.4858,2.3504-1.4219-.2727-2.5781-1.277-3.4858-2.3504Z"/>
  <path class="cls-1" d="M45.9245,25.5658c.2071-.1208.4211-.2278.6419-.321.9974.3451,1.8775.9526,2.8059,1.4496-.1139.1173-.3417.3486-.4556.4659-.9905-.5453-2.0156-1.025-2.9923-1.5945Z"/>
  <path class="cls-1" d="M40.499,25.4865c.9008.2174,1.7257.6696,2.4677,1.2183.3555.1967.5729.6005.5039,1.0112-1.2011-.2934-2.1778-1.3012-2.9716-2.2296Z"/>
  <path class="cls-1" d="M30.2278,25.6073c1.0596.5764,1.5773,1.7429,2.1157,2.7611-1.17-.428-1.598-1.7395-2.1157-2.7611Z"/>
  <path class="cls-1" d="M28.3123,26.2043c1.2735.6937,1.3667,2.3607,2.1571,3.4686-.1691-.0311-.5108-.0897-.6799-.1208-.604-1.063-1.17-2.1605-1.4772-3.3478Z"/>
  <path class="cls-1" d="M27.1423,39.347c-.2209-1.239-.8697-2.4608-.5729-3.7447.7835,1.0389.8525,2.3849,1.1148,3.6135-.1346.0311-.4038.1001-.5419.1312Z"/>
  <path class="cls-1" d="M29.9068,37.6904c.1622-.0173.4832-.0449.6454-.0621.4418,1.0112.7248,2.0777.925,3.1614-1.1527-.5281-1.0147-2.0915-1.5704-3.0993Z"/>
  <path class="cls-1" d="M33.2098,18.9462c1.2252.2554,2.4919.7696,3.3236,1.7429-1.2114-.2934-2.5229-.7282-3.3236-1.7429Z"/>
  <path class="cls-1" d="M64.748,22.4493c1.7084-.7455,3.8724.7041,3.6343,2.5989.0035,2.0397-2.7473,3.082-4.2486,1.8258-1.5324-1.0975-1.1527-3.7896.6143-4.4246Z"/>
  <path class="cls-1" d="M78.5085,24.0749c1.7602-1.0009,4.1416.7075,3.8275,2.6886-.1967,1.9535-2.7887,2.9543-4.2866,1.7015-1.4944-1.063-1.1873-3.6412.459-4.3901Z"/>
  <path class="cls-1" d="M46.5595,29.5487c1.2735.1415,2.1985,1.0975,3.2235,1.7636-.2002.1726-.3969.3486-.5971.5246-.8214-.8249-2.0535-1.2321-2.6265-2.2882Z"/>
  <path class="cls-1" d="M22.238,36.2097c1.063-.5073,2.3435.4004,2.3089,1.5531.1519,1.315-1.667,2.1536-2.6058,1.2632-.8939-.7213-.7386-2.3158.2968-2.8163Z"/>
  <path class="cls-1" d="M37.379,36.0441c1.0389.8352,2.2227,2.0466,2.1191,3.4755-.8456-1.0561-1.7498-2.1502-2.1191-3.4755Z"/>
  <path class="cls-1" d="M34.4729,38.3219c.8835.2105,1.1217,1.0389,1.2528,1.8292-.8352-.2692-1.132-1.0423-1.2528-1.8292Z"/>
  <path class="cls-1" d="M27.446,40.7793c.1381-.1104.4142-.3313.5522-.4452.2312,1.0906.4935,2.1847.5384,3.3064-.8007-.7248-.9664-1.8465-1.0906-2.8612Z"/>
  <path class="cls-1" d="M91.0092,46.298c1.8603-.8352,4.1243.8732,3.7689,2.8957-.176,2.2123-3.334,3.1718-4.6973,1.4219-1.2597-1.3046-.7558-3.6584.9284-4.3176Z"/>
  <path class="cls-1" d="M25.7549,19.5812c1.101.5419,2.1571,1.7498,2.1157,3.0372-.8076-.9319-1.5945-1.9086-2.1157-3.0372Z"/>
  <path class="cls-1" d="M41.8208,23.7263c.2105-.1864.4211-.3762.6316-.5626.9353.5212,1.881,1.0319,2.8612,1.4668-.1277.1726-.2519.3451-.3796.5212-1.0216-.5108-2.0535-1.0009-3.1131-1.4254Z"/>
  <path class="cls-1" d="M24.6263,26.8325c.8007.9008.8111,2.1847,1.1942,3.2788-.1657.0311-.4935.0932-.6592.1242-.2658-1.1182-.6074-2.2399-.535-3.403Z"/>
  <path class="cls-1" d="M26.9594,28.8791c1.1355.8042,1.3115,2.302,1.736,3.5273-.1657-.069-.4935-.2036-.6592-.2692-.5453-1.0078-.742-2.1709-1.0768-3.2581Z"/>
  <path class="cls-1" d="M24.1328,20.7478c.9871.7869,1.5255,2.057,1.3391,3.3202-.1519-.1933-.4556-.5729-.6074-.7627-.1726.2554-.3486.5142-.5212.7731.145.7973.3037,1.6014.3313,2.4194-.8352-1.1873-.8283-2.7127-1.1527-4.076.1864.0311.5626.0897.7489.1173l-.3935.4314c.2519.0587.7524.176,1.0009.2347-.3244-.7973-.5867-1.6152-.7455-2.4573Z"/>
  <path class="cls-1" d="M26.8248,23.6883c.8525.3727,1.6981,1.3736,1.277,2.3262-.5384-.7075-1.0147-1.4703-1.277-2.3262Z"/>
  <path class="cls-1" d="M25.3959,24.5788c1.3357.7869,1.239,2.4953,1.8568,3.7516-.1381-.038-.4142-.107-.5522-.145-.566-1.1493-1.0458-2.3504-1.3046-3.6066Z"/>
  <path class="cls-1" d="M19.8497,44.0339c-.3003-1.8637,1.4979-3.6688,3.365-3.3719,1.4496.0587,2.4159,1.491,2.4194,2.8542,1.1804-.283,2.9267.5902,2.1916,1.9776-1.1458,2.554-2.409,5.0631-3.3098,7.7172-.3244-.9664-.5384-2.2365-1.6049-2.6748-.9526-.3693-1.9949-.3589-2.9992-.4728.2105-1.3184.6799-2.6265,1.7153-3.5238-.8352-.6143-1.6704-1.4116-1.7774-2.5057Z"/>
  <path class="cls-1" d="M69.9768,27.2363c2.1536-1.3391,5.3668-.3865,6.3608,1.9638.4694.9871.3037,2.1088.0138,3.12.6212.2554,1.2321.535,1.8327.8456,1.1458-1.5669,3.0993-2.7024,5.0873-2.2537,2.5643.428,4.3556,3.2546,3.7033,5.7637-.2554,1.2459-.9836,2.3227-1.8534,3.2235,1.1562.9698,2.2399,2.1088,2.7266,3.5721.8663,2.1916.3693,4.8388-1.1942,6.5955-1.8465.2416-3.8758-.145-5.5773.7938-.7938.4038-1.0527,1.3046-1.3012,2.0915-.956-2.5091-2.1916-4.894-3.2581-7.3548-.7558-1.7429-1.7429-3.5135-3.4134-4.5281-2.095-1.3426-4.6766-1.277-7.0649-1.4772-2.7749-.2623-5.5635-.2727-8.3453-.3486-4.6696-.1933-9.3566-.2761-14.0262-.0104.1898-1.4289.8111-2.9095,2.0742-3.6964.711-.1933,1.4599-.0587,2.1847-.0345.1588-1.7567,1.6773-2.9543,3.2615-3.4341,1.1942-.2554,2.4194-.0207,3.5997.2174.245-1.3288.7489-2.6472,1.7015-3.6343,2.4435-2.4228,7.1615-1.8361,8.825,1.2183.3382.566.5212,1.2045.7075,1.8361.6799-.2485,1.3805-.4211,2.0846-.5729-.0897-1.4979.459-3.1752,1.8706-3.8966Z"/>
  <path class="cls-1" d="M28.3779,33.1242c1.3564.566,1.2942,2.3883,1.7912,3.579-1.2666-.6903-1.2942-2.3676-1.7912-3.579Z"/>
  <path class="cls-1" d="M34.4143,41.1555c11.5274-1.1182,23.1688-1.1527,34.6997-.0483,2.1088.1795,4.328,1.1182,5.3392,3.0889,1.7533,3.3927,3.0475,7.0027,4.7801,10.4023.1933.6592.9491.3175,1.4461.3727.352-1.101.1208-2.8646,1.5531-3.2132,1.912-.4107,3.9242-.4866,5.8673-.2381,1.4219.2865,1.6877,1.9362,1.5531,3.1476-.0414.9767-.9457,1.6187-1.8189,1.8361-1.8258.4832-3.7136.6592-5.5877.8628,1.4737,1.17,2.8991,2.4573,3.9104,4.0622,1.1769,1.9051,1.3633,4.2141,1.3702,6.3988.038,6.4367.0276,12.8735.0345,19.3102.1622,1.0768-.8732,2.019-1.9258,1.8879-2.5264.0069-5.0527.0414-7.5757.0104-.8697.0759-1.6704-.5971-1.774-1.453-.0656-1.3253,0-2.6506-.0242-3.9725-16.0521-.038-32.1043.0069-48.1564.0345-.0104,1.2977.0518,2.5989-.0207,3.9-.069.8766-.9112,1.5565-1.7809,1.4737-2.5264.0138-5.0527,0-7.5757.0345-1.0734.1829-2.0087-.8594-1.8982-1.8948-.0138-7.1304-.0897-14.2678.0621-21.3982.038-3.548,2.4642-6.4678,5.2633-8.3729-2.0501-.3589-4.1658-.3831-6.1641-1.0112-2.1364-.566-2.1881-4.1105-.2658-4.9458,1.5635-.3141,3.1787-.0725,4.7559.0069.8352.107,1.9051.0966,2.4021.9077.4245.8042.4004,1.7533.7351,2.5954.6074.1553,1.4185.1484,1.6325-.5764,1.5462-3.4134,2.8163-6.9613,4.5834-10.2746.9077-1.6946,2.7024-2.7162,4.5799-2.9336M36.9786,43.8096c-1.7878.1277-4.0381.3175-4.8836,2.1881-1.4944,3.1373-3.051,6.2711-4.2106,9.5533,2.1019.283,4.2313.1001,6.3435.1519,13.581-.0794,27.1585.1415,40.7395.1242.4694-.0552,1.6394,0,1.3046-.7973-.6143-1.7947-1.5324-3.472-2.2848-5.2081-.7455-1.5393-1.3322-3.1787-2.34-4.5696-.7627-1.0181-2.1053-1.208-3.2822-1.3288-10.4299-.9974-20.9427-.8559-31.3864-.1139M21.2095,63.7997c-1.0009.604-.9595,1.9362-.9491,2.9612.0242,1.0181.2381,2.4884,1.491,2.6472,4.0139.8663,8.0416,2.095,12.1763,2.0156.0725-.1277.214-.3865.2865-.5177-.3072-1.95-1.9017-3.4306-3.5894-4.29-2.4677-1.2287-5.1252-2.0087-7.7551-2.7887-.5384-.0863-1.1665-.3796-1.6601-.0276M80.9969,63.9377c-2.378.7731-4.8008,1.4634-7.0614,2.5471-1.7464.8766-3.4651,2.3676-3.7481,4.4039.1001.6661.8076.535,1.3046.5419,3.2684-.2554,6.4712-1.0078,9.6568-1.7602.7455-.1967,1.5496-.2934,2.2089-.7248.6903-.7489.7144-1.8568.7006-2.8197-.0311-.9112-.2174-2.0673-1.17-2.4642-.6385-.1519-1.277.1346-1.8913.2761M36.3953,76.649c.2588,1.2701.7006,2.6644,1.8119,3.4444,1.9742.4314,4.0173-.0483,6.0191.176,6.9165-.1898,13.8329.0656,20.7459-.0104,1.8258.069,2.7093-1.9983,2.8508-3.5307-.3348-.5039-.9733-.4521-1.4979-.4763-9.4359.0138-18.8753-.0207-28.3113.0173-.5695-.0414-1.1079.1519-1.6187.3796Z"/>
  <path class="cls-1" d="M25.4132,31.4642c.1484-.0242.4418-.0759.5867-.1001.3141,1.1631.5591,2.3538.5867,3.5652-1.0181-.8111-.7765-2.3262-1.1735-3.4651Z"/>
  <path class="cls-1" d="M42.2867,36.6101c.4763-.1795.6558-.0242.535.4659-.4763.176-.6558.0207-.535-.4659Z"/>
</svg>