<?xml version="1.0" encoding="UTF-8"?>
<svg id="Layer_1" data-name="Layer 1" xmlns="http://www.w3.org/2000/svg" viewBox="0 0 100 100">
  <defs>
    <style>
      .cls-1 {
        fill: #fff;
      }
    </style>
  </defs>
  <path class="cls-1" d="M97.8321,76.2857c-3.1214-2.6179-21.4286-14.2107-24.4714-13.6786-1.4286.2536-2.5214,1.4714-5.4464,4.9607-1.3527,1.7175-2.8382,3.326-4.4429,4.8107-2.9401-.7102-5.786-1.7651-8.4786-3.1429-10.5597-5.1411-19.0906-13.6745-24.2286-24.2357-1.3777-2.6926-2.4326-5.5385-3.1429-8.4786,1.4847-1.6047,3.0933-3.0902,4.8107-4.4429,3.4857-2.925,4.7071-4.0107,4.9607-5.4464.5321-3.05-11.0714-21.35-13.6786-24.4714C22.6214.8679,21.6286,0,20.3571,0,16.6714,0,0,20.6143,0,23.2857c0,.2179.3571,21.6786,27.4607,49.2536,27.575,27.1036,49.0357,27.4607,49.2536,27.4607,2.6714,0,23.2857-16.6714,23.2857-20.3571,0-1.2714-.8679-2.2643-2.1679-3.3571h0Z"/>
  <path class="cls-1" d="M75,46.4286h7.1429c-.0177-15.7722-12.7992-28.5537-28.5714-28.5714v7.1429c11.8298.0118,21.4168,9.5988,21.4286,21.4286Z"/>
  <path class="cls-1" d="M92.8571,46.4286h7.1429C99.9705,20.799,79.201.0295,53.5714,0v7.1429c21.6863.0256,39.2601,17.5994,39.2857,39.2857Z"/>
</svg>