<?xml version="1.0" encoding="UTF-8"?>
<svg id="Layer_1" data-name="Layer 1" xmlns="http://www.w3.org/2000/svg" viewBox="0 0 100 100">
  <defs>
    <style>
      .cls-1 {
        fill: #fff;
      }
    </style>
  </defs>
  <path class="cls-1" d="M22.8325,24.7052c1.3357-1.6739,1.3529-3.9794,1.6601-6.0122.5073,1.9465.4452,4.145,1.5841,5.8742,1.6394,1.4737,4.0725,1.3529,6.133,1.7153-2.0259.4452-4.3901.2796-6.0605,1.6773-1.17,1.705-1.1631,3.8758-1.6532,5.8189-.3244-1.9569-.3555-4.1002-1.4875-5.8051-1.6704-1.5462-4.1519-1.346-6.2469-1.7429,2.0363-.3382,4.3349-.245,6.0709-1.5255Z"/>
  <path class="cls-1" d="M11.3809,41.1991c.5143,1.8396.4142,3.9276,1.5221,5.5497,1.5082,1.384,3.724,1.3184,5.6361,1.6394-1.8119.3106-3.8759.2312-5.391,1.415-1.353,1.5427-1.3668,3.7585-1.7705,5.674-.2865-1.9258-.2555-4.1174-1.5497-5.6878-1.5945-1.1562-3.7067-1.0596-5.5601-1.4565,1.9258-.4038,4.221-.2105,5.743-1.6635,1.0527-1.6049,1.1217-3.6204,1.3701-5.4704Z"/>
  <path class="cls-1" d="M37.8561,28.6294c11.8277-.8939,23.7348-.849,35.5487.2209,2.2813.2036,4.6075,1.3495,5.6705,3.4651,1.9983,3.7827,3.4789,7.8138,5.4151,11.6275.3865-.0932.7731-.2071,1.1596-.3382.3865-1.0734.1001-2.5747,1.2563-3.2235,1.4047-.6005,2.9785-.5108,4.4764-.6143,1.0906.0311,2.3158-.176,3.2926.4418,1.0837.7696,1.1389,2.2951,1.0043,3.4962-.1449,1.0768-1.1631,1.7119-2.1398,1.9362-2.0432.5073-4.1485.7213-6.24.9042,2.6644,1.9638,5.2426,4.5834,5.7775,7.9864.3658,2.5091.1967,5.0527.2416,7.5791.0242,5.7603-.0138,11.5205.0138,17.2808.1312,1.0665-.8904,1.9811-1.9293,1.8913-2.768.0449-5.5359.0173-8.3004-.0035-.9008.0483-1.9155-.5695-1.988-1.5186-.0794-1.4703-.0104-2.9405-.0449-4.4108-17.7502.0242-35.4969-.0621-53.2471-.0173.0794,1.5635.2243,3.1476-.0207,4.7042-.1657.8904-1.1562,1.2977-1.9776,1.2356-2.8681.0242-5.7396.0449-8.6076-.0069-.9629.0173-1.7602-.9388-1.6808-1.8741.0035-7.2512.0138-14.5059-.0069-21.7606-.0138-2.0673.0656-4.2382,1.0665-6.1054,1.0216-2.0535,2.8439-3.5238,4.5799-4.9527-2.1985-.4004-4.4591-.5453-6.5989-1.2011-2.6644-.6316-2.2434-5.4255.4935-5.5497,1.5635-.1208,3.1407-.0276,4.7042.1242.8456.1346,1.8119.2727,2.4056.9629.5419.9077.352,2.0535.8214,2.9958,1.1182.4142,1.5807-.7938,1.9431-1.5945,1.1873-2.8163,2.4712-5.5843,3.7585-8.3557.7144-1.4875,1.4875-3.1027,2.9785-3.9621,1.8361-1.1665,4.0795-1.1665,6.1744-1.3633M39.8234,31.7356c-2.4401.4176-5.6119-.283-7.372,1.881-1.8016,3.0303-2.9889,6.3815-4.5212,9.5498-.1622.4314-.6696,1.3598.1035,1.4599,2.0087.2105,4.0415.0345,6.0606.069,15.0685-.0587,30.137.0311,45.209.1346.566-.0932,1.5945.2071,1.7222-.6005-.849-2.5747-2.1674-4.9699-3.2788-7.4411-.6419-1.2839-1.1148-2.73-2.1881-3.7309-1.0527-.8939-2.5091-.9319-3.8103-1.0906-10.6128-.9284-21.2982-.9215-31.9248-.2312M20.0749,53.6929c-.9181.8042-.7973,2.1536-.7731,3.2581.038.9974.2899,2.3469,1.4668,2.5643,3.9345.9974,7.9174,1.8396,11.9451,2.3711.6454.0621,1.9707.2209,1.6981-.818-.3727-2.2261-2.3331-3.7654-4.2589-4.6869-2.5781-1.1493-5.2736-2.0225-7.9933-2.768-.6765-.1381-1.5047-.4521-2.0846.0794M86.2161,53.8448c-2.7576.8421-5.5566,1.6359-8.1451,2.9267-1.8119.9388-3.5549,2.5609-3.7999,4.6835.214.8111,1.2701.4866,1.8879.5177,3.0475-.4004,6.1227-.8249,9.0735-1.7084-.2899,1.2321-.3589,2.7404-1.4565,3.5687-1.4944.9353-3.3167.9871-5.0148,1.1804,1.7602.2796,3.7585.2796,5.2357,1.4116,1.2183,1.3978.994,3.4341,1.4289,5.1356.39-1.7153.2865-3.6481,1.3495-5.1321,1.4426-1.1286,3.4271-1.0492,5.139-1.4841-1.6014-.176-3.3029-.2209-4.7352-1.0216-1.1597-.8559-1.2149-2.4159-1.5014-3.7033,1.2287-.2658,3.0303-.2036,3.5549-1.6221.4004-1.4219.4901-3.0924-.2382-4.4212-.6178-.9733-1.8775-.5591-2.7783-.3313M37.0312,67.5017c-.3037,1.8361,1.1873,4.328,3.2788,4.0484,9.4325.0069,18.8615.0035,28.294.0345,1.9431.1553,2.9026-2.0156,3.1925-3.617-.0966-.8801-1.1804-.6972-1.805-.7524-10.354.0138-20.7045-.0483-31.0551-.0069-.6454.0276-1.3357-.0518-1.9051.2934Z"/>
</svg>