<?xml version="1.0" encoding="UTF-8"?>
<svg id="Layer_1" data-name="Layer 1" xmlns="http://www.w3.org/2000/svg" viewBox="0 0 100 100">
  <defs>
    <style>
      .cls-1 {
        fill: #fff;
      }
    </style>
  </defs>
  <path class="cls-1" d="M50.0125,0h-.025C22.4187,0,0,22.425,0,50c0,10.9375,3.525,21.075,9.5188,29.3063l-6.2312,18.575,19.2188-6.1437c7.9063,5.2375,17.3375,8.2625,27.5062,8.2625,27.5688,0,49.9875-22.4312,49.9875-50S77.5813,0,50.0125,0ZM79.1062,70.6062c-1.2062,3.4063-5.9937,6.2312-9.8125,7.0562-2.6125.5562-6.025,1-17.5125-3.7625-14.6937-6.0875-24.1562-21.0187-24.8937-21.9875-.7062-.9687-5.9375-7.9062-5.9375-15.0813s3.6437-10.6687,5.1125-12.1688c1.2062-1.2313,3.2-1.7937,5.1125-1.7937.6187,0,1.175.0313,1.675.0563,1.4688.0625,2.2063.15,3.175,2.4687,1.2062,2.9063,4.1438,10.0812,4.4937,10.8187.3563.7375.7125,1.7375.2125,2.7063-.4687,1-.8812,1.4437-1.6187,2.2938s-1.4375,1.5-2.175,2.4125c-.675.7937-1.4375,1.6438-.5875,3.1125.85,1.4375,3.7875,6.2313,8.1125,10.0813,5.5813,4.9688,10.1063,6.5562,11.725,7.2312,1.2062.5,2.6438.3812,3.525-.5562,1.1187-1.2062,2.5-3.2063,3.9063-5.175,1-1.4125,2.2625-1.5875,3.5875-1.0875,1.35.4687,8.4938,4,9.9625,4.7312,1.4687.7375,2.4375,1.0875,2.7937,1.7062.35.6187.35,3.525-.8563,6.9375Z"/>
</svg>