<?xml version="1.0" encoding="UTF-8"?>
<svg id="Layer_1" data-name="Layer 1" xmlns="http://www.w3.org/2000/svg" viewBox="0 0 100 100">
  <defs>
    <style>
      .cls-1 {
        fill: #fff;
      }
    </style>
  </defs>
  <path class="cls-1" d="M94.9119,21.6058c-3.5165-4.1802-10.0089-5.8853-22.408-5.8853H27.4952c-12.6829,0-19.2853,1.8151-22.7886,6.2655-3.4156,4.3392-3.4156,10.7326-3.4156,19.5813v16.8656c0,17.1427,4.0526,25.8466,26.2042,25.8466h45.009c10.7524,0,16.7106-1.5046,20.5652-5.1936,3.953-3.783,5.6396-9.9596,5.6396-20.6529v-16.8656c0-9.3317-.2643-15.7629-3.7971-19.9616ZM63.8337,52.3286l-20.4383,10.6817c-.4569.2388-.9566.3573-1.4556.3573-.565,0-1.1288-.1521-1.6281-.4544-.9402-.5697-1.5144-1.5889-1.5144-2.6881v-21.2949c0-1.0974.5726-2.1155,1.5109-2.6856.9387-.5701,2.1061-.609,3.08-.1031l20.4383,10.6129c1.0399.5399,1.6929,1.6134,1.6944,2.7846.0013,1.1722-.6489,2.2472-1.6872,2.7896Z"/>
</svg>